<svg width="76" height="49" viewBox="0 0 76 49" fill="none" xmlns="http://www.w3.org/2000/svg">
<path d="M0.1 1.2C0.5 0.3 1.1 0 2.1 0C16.2 0 30.3 0 44.4 0C45.9 0 46.4 0.5 46.4 2C46.4 14.3 46.4 26.6 46.4 39C46.4 40.5 45.9 41 44.5 41C38.5 41 32.4 41 26.4 41C25 41 24.6 40.7 24.4 39.3C23.3 34.1 18.5 31.5 13.6 32.5C9.9 33.3 7.7 35.7 7 39.4C6.8 40.4 6.3 40.9 5.2 40.9C4.2 40.9 3.1 40.9 2.1 40.9C1.2 40.9 0.5 40.7 0 39.8C0.1 27 0.1 14.1 0.1 1.2Z" fill="white"/>
<path d="M49.4 24.7C49.4 19.9 49.4 15.2 49.4 10.4C49.4 8.9 49.9 8.3 51.4 8.3C54.8 8.3 58.1 8.3 61.5 8.3C62.4 8.3 63 8.6 63.5 9.3C67.4 14 71.3 18.7 75.2 23.3C75.7 23.8 75.9 24.4 75.9 25.1C75.9 29.7 75.9 34.3 75.9 39C75.9 40.4 75.4 41 73.9 41C73.7 41 73.4 41 73.2 41C71.9 41 71.4 40.6 71.2 39.3C70.4 34.3 65.5 31.4 60.6 32.6C57 33.4 54.8 35.7 54.1 39.4C53.9 40.6 53.4 41 52.2 41C49.7 41 49.4 40.8 49.4 38.3C49.4 33.7 49.4 29.2 49.4 24.7ZM60.4 22C62.5 22 64.5 22 66.6 22C67.3 22 68 21.8 68.3 21.1C68.6 20.4 68.4 19.8 67.9 19.3C65.9 17 64 14.6 62 12.2C61.5 11.6 61 11.4 60.2 11.4C58.2 11.4 56.3 11.4 54.3 11.4C53 11.4 52.4 12 52.4 13.3C52.4 15.6 52.4 17.8 52.4 20.1C52.4 21.4 53 22 54.3 22C56.3 22 58.3 22 60.4 22Z" fill="white"/>
<path d="M62.6 48C59.1 48 56.2 45.1 56.2 41.6C56.2 38.1 59.2 35.1 62.7 35.1C66.2 35.1 69.1 38 69.1 41.5C69.1 45.1 66.1 48 62.6 48ZM62.6 43.5C63.6 43.5 64.5 42.6 64.5 41.6C64.5 40.6 63.6 39.7 62.6 39.7C61.6 39.7 60.7 40.6 60.7 41.6C60.8 42.6 61.6 43.5 62.6 43.5Z" fill="white"/>
<path d="M22 41.6C22 45.2 19.1 48.1 15.5 48C12 48 9.10001 45 9.10001 41.6C9.10001 38.1 12.1 35.1 15.6 35.2C19.2 35.2 22.1 38.1 22 41.6ZM15.6 43.5C16.6 43.5 17.5 42.6 17.5 41.6C17.5 40.6 16.6 39.7 15.6 39.7C14.6 39.7 13.7 40.6 13.7 41.6C13.7 42.6 14.6 43.5 15.6 43.5Z" fill="white"/>
</svg>
