<svg width="59" height="56" viewBox="0 0 59 56" fill="none" xmlns="http://www.w3.org/2000/svg">
<path d="M0 33C0.2 31.9 0.4 30.7 0.7 29.6C1.6 26.4 3.3 23.6 5.9 21.4C6.3 21.1 6.5 20.7 6.5 20.2C6.5 18.6 6.5 16.9 6.5 15.3C6.5 12.6 8.3 10.7 11 10.7C15.1 10.7 19.3 10.7 23.4 10.7C26.1 10.7 27.9 12.7 27.9 14.9C27.9 16.8 28 18.7 27.9 20.5C27.8 22.4 26.4 23.5 24.6 23.6C22.2 23.6 19.9 23.6 17.5 23.6C14.5 23.6 11.9 24.6 9.8 26.6C5.1 31 5.5 38.9 10.6 42.8C14.1 45.4 17.8 45.8 21.8 44C21.9 43.9 22 43.9 22.2 43.8C22.2 43.8 22.3 43.8 22.2 43.8C23.1 45.8 24 47.7 25 49.7C24.2 50 23.3 50.4 22.4 50.7C13.3 53.5 3.6 48.4 0.8 39.4C0.5 38.3 0.3 37.1 0.1 35.9C0.1 35.7 0 35.6 0 35.4C0 34.6 0 33.8 0 33ZM15.1 17.2C15.1 18.4 16 19.3 17.2 19.3C18.4 19.3 19.4 18.3 19.4 17.1C19.4 15.9 18.4 15 17.3 15C16 15 15.1 16 15.1 17.2ZM17.2 49.3C17.8 49.3 18.2 48.8 18.3 48.3C18.3 47.7 17.9 47.2 17.3 47.2C16.7 47.2 16.2 47.7 16.2 48.3C16.1 48.8 16.6 49.3 17.2 49.3Z" fill="white"/>
<path d="M47.2 30C50 30.2 52 29.3 53.3 26.8C54.5 28 55.4 29.4 56.2 30.9C58.5 35.6 58.7 40.3 56.8 45.1C55 49.6 51.7 52.8 47.2 54.6C42.3 56.5 37.5 56.2 33 53.8C28.5 51.4 25.6 47.7 24.4 42.8C23 37 24.3 31.8 28.3 27.3C28.7 26.8 29.2 26.4 29.7 25.9C30.2 25.5 30.4 25 30.4 24.4C30.4 22.7 30.4 20.9 30.4 19.2C30.4 17.1 32.1 15.1 34.8 15.1C39 15.1 43.2 15.1 47.4 15.1C50 15.1 51.8 17 51.8 19.6C51.8 21.3 51.8 22.9 51.8 24.6C51.8 26.6 50.4 28 48.4 28C46 28 43.6 27.9 41.2 28C37.6 28.1 34.6 29.5 32.5 32.5C28.4 38.1 30.6 46 37 48.6C40.8 50.2 44.5 49.7 47.8 47.1C50.9 44.6 52.3 41.2 51.7 37.2C51.4 34.5 50.1 32.3 48 30.6C47.6 30.4 47.4 30.3 47.2 30ZM42.9 21.4C42.9 20.2 41.9 19.3 40.8 19.3C39.6 19.3 38.6 20.3 38.7 21.5C38.7 22.7 39.7 23.6 40.8 23.6C42 23.6 42.9 22.6 42.9 21.4ZM41.8 52.6C41.8 52 41.4 51.6 40.8 51.5C40.2 51.5 39.7 51.9 39.7 52.5C39.7 53.1 40.1 53.5 40.7 53.6C41.3 53.6 41.8 53.2 41.8 52.6Z" fill="white"/>
<path d="M32.2 8.6C31 8.6 29.9 8.6 28.8 8.6C27.2 8.7 25.8 8.4 24.7 7.1C24.5 7.3 24.4 7.4 24.2 7.5C23.5 8.1 22.7 8.5 21.8 8.5C20.2 8.5 18.6 8.6 17 8.5C14.8 8.4 13.1 6.8 12.9 4.8C12.7 2.6 14 0.7 16.2 0.1C16.5 1.41561e-07 16.8 0 17.1 0C18.5 0 20 0 21.4 0C22.7 0 23.7 0.5 24.6 1.5C24.9 1.3 25.1 1.1 25.4 0.9C26.1 0.4 27 0.1 27.9 0.1C29.4 0.1 31 0.1 32.5 0.1C34.7 0.2 36.6 2.2 36.5 4.5C36.5 4.6 36.5 4.7 36.5 4.8C37.6 4.8 38.6 4.8 39.7 4.8C40.5 4.8 41.4 4.8 42.2 5C44.1 5.5 45.3 7.5 45.1 9.5C44.9 11.4 43.3 13.1 41.3 13.2C39.6 13.3 37.9 13.3 36.2 13.2C33.9 13.1 32.3 11.1 32.3 8.9C32.2 8.9 32.2 8.8 32.2 8.6ZM38.7 6.9C38 6.9 37.2 6.9 36.5 6.9C35.3 6.9 34.5 7.8 34.4 8.9C34.3 10 35.1 11 36.2 11.1C37.8 11.2 39.5 11.2 41.1 11.1C42.2 11 43 10 42.9 8.8C42.8 7.7 42 6.9 40.9 6.9C40.1 6.9 39.4 6.9 38.7 6.9ZM30.1 6.4C30.8 6.4 31.5 6.4 32.2 6.4C33.5 6.4 34.3 5.5 34.4 4.4C34.4 3.2 33.6 2.3 32.4 2.2C30.9 2.1 29.4 2.1 27.9 2.2C26.7 2.3 25.8 3.2 25.9 4.4C25.9 5.6 26.8 6.4 28.1 6.4C28.7 6.4 29.4 6.4 30.1 6.4ZM19.4 6.4C20.1 6.4 20.8 6.4 21.5 6.4C22.7 6.4 23.6 5.5 23.6 4.3C23.6 3.2 22.8 2.2 21.7 2.1C20.1 2 18.6 2 17 2.1C15.8 2.2 15 3.1 15.1 4.3C15.1 5.4 16 6.3 17.2 6.3C17.9 6.4 18.6 6.4 19.4 6.4Z" fill="white"/>
</svg>
