<svg width="60" height="43" viewBox="0 0 60 43" fill="none" xmlns="http://www.w3.org/2000/svg">
<path d="M0 37.8C0 26.8 0 15.8 0 4.7L0.1 4.6C0.9 1.5 2.8 0 6 0C21.8 0 37.5 0 53.3 0C53.5 0 53.7 0 53.9 0C56.3 0.1 58.2 1.5 59 3.7C59.1 4 59.2 4.4 59.3 4.7C59.3 15.7 59.3 26.7 59.3 37.8L59.2 37.9C58.4 41 56.5 42.5 53.3 42.5C37.5 42.5 21.8 42.5 6 42.5C5.8 42.5 5.6 42.5 5.4 42.5C3 42.4 1 41 0.3 38.8C0.1 38.5 0.1 38.2 0 37.8ZM23.2 25.5C25.7 22.4 25 18.7 22.8 16.6C20.5 14.4 16.9 14.3 14.4 16.2C13.2 17.2 12.4 18.5 12.1 20C11.7 22 12.3 23.8 13.6 25.4C13.5 25.5 13.4 25.5 13.3 25.6C10.9 27.3 9.5 29.6 9.2 32.6C9 34.3 9.7 35 11.4 35C15.6 35 19.9 35 24.1 35C24.6 35 25.2 35 25.7 35C26.9 35 27.6 34.2 27.5 33.1C27.4 32.3 27.3 31.4 27.1 30.7C26.6 28.5 25.2 26.8 23.2 25.5ZM29.6 7.5C23.6 7.5 17.6 7.5 11.6 7.5C11.3 7.5 11 7.5 10.7 7.5C9.6 7.7 9 8.9 9.4 9.9C9.8 10.7 10.5 11 11.3 11C23.5 11 35.7 11 47.9 11C48.1 11 48.4 11 48.6 10.9C49.6 10.7 50.1 9.7 49.9 8.8C49.7 7.9 49 7.5 47.8 7.5C41.7 7.5 35.7 7.5 29.6 7.5ZM41.7 16.8C39.6 16.8 37.5 16.8 35.4 16.8C34.2 16.8 33.4 17.5 33.4 18.5C33.4 19.5 34.2 20.2 35.4 20.2C39.6 20.2 43.8 20.2 48 20.2C49.2 20.2 50 19.5 50 18.5C50 17.5 49.2 16.8 48 16.8C45.9 16.8 43.8 16.8 41.7 16.8ZM41.6 27.7C43.8 27.7 45.9 27.7 48.1 27.7C49.1 27.7 49.9 27 49.9 26C49.9 25 49.1 24.3 48.1 24.2C43.8 24.2 39.5 24.2 35.1 24.2C34.3 24.2 33.8 24.6 33.5 25.3C33 26.4 33.9 27.6 35.1 27.7C37.4 27.7 39.5 27.7 41.6 27.7ZM39.8 31.6C38.3 31.6 36.8 31.6 35.3 31.6C34.2 31.6 33.4 32.4 33.5 33.3C33.5 34.3 34.3 35 35.3 35C38.4 35 41.4 35 44.5 35C44.9 35 45.5 34.7 45.8 34.4C46.3 33.9 46.4 33.3 46.1 32.6C45.8 31.9 45.2 31.6 44.5 31.6C42.9 31.6 41.3 31.6 39.8 31.6Z" fill="white"/>
</svg>
