<svg width="59" height="59" viewBox="0 0 59 59" fill="none" xmlns="http://www.w3.org/2000/svg">
<path d="M30.8488 58.2449C29.7488 58.2449 28.5488 58.2449 27.4488 58.2449C27.3488 58.2449 27.1488 58.145 27.0488 58.145C25.7488 57.945 24.3488 57.845 23.0488 57.545C8.64877 54.545 -1.35123 40.945 0.148771 26.2449C0.848771 20.1449 3.04877 14.6449 7.14877 10.0449C14.1488 2.24495 22.8488 -0.95505 33.1488 0.24495C39.5488 1.04495 45.0488 3.84495 49.6488 8.34495C54.0488 12.7449 56.8488 17.9449 57.8488 24.0449C58.0488 25.1449 58.1488 26.2449 58.3488 27.3449C58.3488 28.445 58.3488 29.6449 58.3488 30.7449C58.1488 31.6449 58.1488 32.345 58.0488 33.145C57.1488 39.445 54.4488 44.945 50.0488 49.445C45.6488 53.945 40.3488 56.645 34.2488 57.7449C33.0488 58.0449 31.9488 58.145 30.8488 58.2449ZM29.2488 32.2449C29.4488 32.445 29.5488 32.645 29.6488 32.7449C32.1488 35.2449 34.6488 37.7449 37.1488 40.2449C37.3488 40.445 37.4488 40.645 37.6488 40.7449C38.8488 41.7449 40.7488 41.145 41.1488 39.545C41.4488 38.645 41.0488 37.845 40.4488 37.145C37.8488 34.545 35.3488 32.0449 32.7488 29.4449C32.6488 29.3449 32.4488 29.1449 32.2488 28.8449C32.4488 28.7449 32.6488 28.6449 32.7488 28.4449C35.1488 26.0449 37.4488 23.7449 39.8488 21.3449C40.0488 21.1449 40.1488 21.045 40.3488 20.8449C41.1488 19.8449 41.0488 18.445 40.0488 17.7449C39.1488 17.1449 37.8488 17.2449 36.9488 18.1449C34.5488 20.5449 32.0488 23.0449 29.6488 25.4449C29.5488 25.5449 29.3488 25.7449 29.1488 25.8449C28.9488 25.6449 28.8488 25.5449 28.6488 25.4449C26.3488 23.1449 24.1488 20.9449 21.8488 18.6449C21.4488 18.2449 21.0488 17.7449 20.5488 17.4449C19.2488 16.3449 17.3488 17.0449 16.9488 18.6449C16.7488 19.5449 17.0488 20.2449 17.7488 20.9449C20.3488 23.5449 22.8488 26.0449 25.4488 28.6449C25.5488 28.7449 25.7488 28.9449 25.8488 29.1449C25.6488 29.3449 25.5488 29.4449 25.4488 29.6449C22.8488 32.2449 20.1488 34.945 17.5488 37.545C17.3488 37.745 17.1488 37.945 17.0488 38.145C16.5488 38.845 16.4488 39.645 16.8488 40.445C17.2488 41.2449 17.9488 41.645 18.8488 41.645C19.6488 41.645 20.1488 41.3449 20.6488 40.7449C23.4488 37.945 26.2488 35.145 29.2488 32.2449Z" fill="white"/>
</svg>
