<svg width="60" height="60" viewBox="0 0 60 60" fill="none" xmlns="http://www.w3.org/2000/svg">
<path d="M27.8587 0C29.0587 0 30.3587 0 31.5587 0C31.9587 0 32.2587 0.0999999 32.6587 0.0999999C38.8587 0.8 44.3587 3.1 49.0587 7.2C54.4587 11.9 57.7587 17.7 58.9587 24.7C59.1587 25.8 59.2587 26.9 59.4587 28C59.4587 29.2 59.4587 30.3 59.4587 31.5C59.4587 31.7 59.3587 31.8 59.3587 32C59.1587 33.4 59.0587 34.8 58.7587 36.2C56.3587 47.8 46.5587 57.2 34.8587 59.1C33.7587 59.3 32.5587 59.4 31.4587 59.6C30.2587 59.6 29.1587 59.6 27.9587 59.6C27.7587 59.6 27.6587 59.5 27.4587 59.5C25.8587 59.2 24.1587 59.1 22.5587 58.7C8.05873 55.1 -1.74127 41.2 0.258733 25.8C1.15873 19.5 3.75873 13.9 8.15873 9.3C12.6587 4.5 18.1587 1.6 24.6587 0.4C25.7587 0.3 26.8587 0.2 27.8587 0ZM56.3587 29.2C56.2587 23.7 54.4587 18.2 50.5587 13.3C49.8587 12.5 49.3587 12.4 48.5587 13.2C36.7587 25 24.9587 36.9 13.1587 48.7C12.4587 49.4 12.4587 50 13.2587 50.6C19.7587 55.6 27.0587 57.4 35.1587 55.8C47.3587 53.4 56.3587 42.3 56.3587 29.2ZM3.35873 30C3.35873 36 5.35873 41.6 8.95873 46.3C9.55873 47.1 10.1587 47.2 10.8587 46.4C22.7587 34.6 34.5587 22.7 46.3587 10.9C47.0587 10.2 47.0587 9.6 46.2587 9C39.9587 4.2 32.9587 2.5 25.2587 3.8C12.5587 6 3.35873 17.2 3.35873 30Z" fill="white"/>
<path d="M41.5587 33C42.6587 31.7 43.7587 30.5 44.8587 29.2C46.8587 26.5 48.2587 23.6 48.7587 20.3C48.7587 20 48.8587 19.7 48.8587 19.4C48.9587 18.6 48.4587 18.1 47.5587 18.1C47.2587 18.1 47.0587 18.1 46.8587 18.2C47.7587 17.3 48.6587 16.4 49.4587 15.5C55.9587 24 56.1587 37.9 46.9587 47.1C37.7587 56.3 23.9587 56.1 15.2587 49.5C16.5587 48.3 17.7587 47.1 19.0587 45.8C19.0587 46.1 19.0587 46.3 19.0587 46.6C19.0587 47.5 19.4587 47.9 20.3587 47.8C23.2587 47.7 25.5587 46.4 27.4587 44.2C27.8587 43.7 28.1587 43.3 28.6587 42.7C28.6587 43 28.6587 43.2 28.6587 43.4C28.6587 46.3 28.6587 49.1 28.6587 52C28.6587 52.7 29.0587 53.2 29.6587 53.2C30.3587 53.2 30.7587 52.8 30.7587 52C30.7587 49.9 30.7587 47.9 30.7587 45.8C30.7587 44.8 30.7587 43.8 30.7587 42.6C31.1587 43.1 31.3587 43.5 31.6587 43.9C33.4587 46.3 35.8587 47.6 38.8587 47.8C39.9587 47.9 40.3587 47.5 40.3587 46.4C40.3587 44.5 39.9587 42.6 39.0587 40.8C38.9587 40.7 38.9587 40.6 38.8587 40.3C39.1587 40.3 39.4587 40.3 39.7587 40.3C43.2587 40.3 46.5587 39.8 49.7587 38.4C50.2587 38.2 50.8587 37.9 51.3587 37.6C52.3587 37.1 52.2587 36.1 51.3587 35.6C48.4587 34 45.2587 33.1 41.9587 33C41.7587 33.1 41.6587 33.1 41.5587 33Z" fill="white"/>
<path d="M46.5587 20.4C46.0587 22.7 45.1587 24.9 43.8587 26.8C40.9587 31 37.2587 34.2 32.2587 35.6C31.1587 35.9 30.0587 36.2 28.9587 35.9C28.8587 35.8 28.8587 35.8 28.7587 35.7C28.9587 35.6 29.1587 35.5 29.3587 35.4C33.7587 31.1 38.1587 26.7 42.4587 22.3C43.6587 21.1 45.0587 20.8 46.5587 20.4Z" fill="white"/>
<path d="M48.6587 36.7C43.7587 38.6 38.8587 38.7 33.7587 37.5C34.7587 37 35.8587 36.8 36.5587 36.2C38.1587 34.9 39.9587 35 41.8587 35.2C43.9587 35.4 46.0587 35.8 48.1587 36.5C48.2587 36.6 48.4587 36.6 48.6587 36.7Z" fill="white"/>
<path d="M38.1587 45.6C34.8587 45.1 32.4587 41.9 31.5587 39.2C32.2587 39.4 32.8587 39.6 33.5587 39.7C34.3587 39.9 35.1587 40 35.9587 40.1C36.1587 40.1 36.3587 40.2 36.4587 40.3C37.2587 41.4 38.2587 44.2 38.1587 45.6Z" fill="white"/>
<path d="M27.9587 39.2C27.1587 42.3 23.8587 45.5 21.2587 45.6C21.4587 44.4 21.4587 43.1 22.5587 42.2C22.7587 42 23.0587 41.8 23.2587 41.5C24.3587 39.9 26.1587 39.6 27.9587 39.2Z" fill="white"/>
<path d="M44.1587 10C41.0587 13.1 38.0587 16.1 34.9587 19.2C34.8587 18.4 34.7587 17.7 34.6587 16.9C34.1587 13.3 32.8587 10 30.8587 7C30.2587 6 29.4587 6 28.7587 7C26.6587 9.9 25.5587 13.2 24.9587 16.7C24.5587 19.1 24.4587 21.5 24.5587 23.9C24.5587 24.1 24.5587 24.2 24.5587 24.5C23.7587 23.9 23.1587 23.2 22.3587 22.7C19.6587 20.6 16.7587 19 13.4587 18.3C12.9587 18.2 12.4587 18.1 11.9587 18.1C11.0587 18 10.6587 18.5 10.6587 19.3C10.8587 21.6 11.5587 23.8 12.5587 25.9C13.8587 28.4 15.5587 30.7 17.7587 32.6C17.8587 32.7 17.9587 32.8 18.1587 33C17.7587 33 17.5587 33.1 17.3587 33.1C14.1587 33.3 11.1587 34.2 8.25874 35.7C7.75874 35.9 7.45874 36.2 7.45874 36.8C7.45874 37.3 7.75874 37.6 8.25874 37.9C10.1587 38.9 12.1587 39.7 14.1587 40C12.7587 41.4 11.3587 42.8 9.95874 44.2C3.85874 36.2 3.05874 22.8 11.7587 13.3C20.6587 3.5 34.8587 3 44.1587 10Z" fill="white"/>
<path d="M12.9587 20.4C16.6587 21.3 19.8587 23 22.5587 25.6C23.4587 26.5 24.1587 27.4 25.0587 28.3C25.4587 28.7 25.4587 29 25.0587 29.4C23.8587 30.5 22.7587 31.7 21.5587 32.8C17.1587 29.7 14.1587 25.7 12.9587 20.4Z" fill="white"/>
<path d="M27.0587 27.1C26.0587 21 26.6587 15.1 29.7587 9.4C30.0587 10.1 30.3587 10.6 30.5587 11.2C31.9587 14.3 32.6587 17.6 32.7587 21C32.7587 21.3 32.6587 21.7 32.3587 21.9C30.7587 23.6 29.0587 25.3 27.3587 26.9C27.2587 27 27.1587 27.2 27.1587 27.3C27.1587 27.2 27.1587 27.1 27.0587 27.1Z" fill="white"/>
<path d="M10.9587 36.7C13.5587 35.7 16.1587 35.2 19.1587 35.2C18.9587 35.4 18.8587 35.6 18.6587 35.7C18.1587 36.3 17.5587 36.8 17.0587 37.4C16.5587 38 15.9587 38.2 15.2587 38C13.8587 37.6 12.4587 37.3 11.0587 36.9C10.9587 36.8 10.9587 36.7 10.9587 36.7Z" fill="white"/>
</svg>
