<svg width="50" height="50" viewBox="0 0 50 50" fill="none" xmlns="http://www.w3.org/2000/svg">
<path d="M24.8 49.6C11.1 49.6 0 38.4 0 24.7C0.1 11.1 11.2 0 24.8 0C38.5 0 49.6 11.2 49.6 24.9C49.5 38.5 38.4 49.6 24.8 49.6ZM24.7 27.3C23.4 27.5 22.1 27.6 20.9 27.8C17.3 28.6 14.4 30.6 12.7 33.9C12.3 34.7 12.4 35.4 13.1 35.8C13.8 36.2 14.5 35.9 14.9 35C15.7 33.3 17 32.1 18.6 31.2C21.3 29.7 24.3 29.4 27.3 29.8C30 30.2 32.3 31.4 34.1 33.6C34.5 34.1 34.8 34.6 35.1 35.2C35.5 35.8 36.2 36 36.8 35.6C37.3 35.3 37.5 34.8 37.1 34.1C36.4 32.6 35.4 31.4 34.2 30.4C31.3 28.3 28.1 27.4 24.7 27.3ZM14 17.7C13.1 20 14.3 21.6 15.6 22.1C16.4 22.4 17.2 22.4 18 22.1C19.1 21.6 19.7 20.7 19.9 19.5C20.3 19.6 20.7 19.7 21 19.7C21.6 19.8 22 19.5 22.2 18.9C22.4 18.4 22.2 17.8 21.8 17.5C21.6 17.4 21.3 17.3 21.1 17.2C19.2 16.6 17.4 16.1 15.5 15.5C13.4 14.9 11.4 14.3 9.3 13.6C8.6 13.4 7.8 13.7 7.6 14.4C7.4 15 7.8 15.8 8.5 16.1C8.6 16.1 8.7 16.2 8.8 16.2C10.5 16.7 12.2 17.2 14 17.7ZM35.6 17.9C35.8 17.8 35.9 17.8 36.1 17.7C37.7 17.2 39.4 16.7 41 16.2C41.8 15.9 42.2 15.3 41.9 14.6C41.7 13.8 41.1 13.6 40.2 13.9C38.6 14.4 37 14.9 35.4 15.4C33 16.1 30.6 16.8 28.2 17.6C27.5 17.8 27.2 18.4 27.3 19.1C27.5 19.7 28 20.1 28.7 19.9C29 19.8 29.3 19.8 29.5 19.8C30 21.9 31.6 23 33.5 22.5C35.2 21.9 36.6 20.2 35.6 17.9Z" fill="white"/>
</svg>
