<svg width="49" height="50" viewBox="0 0 49 50" fill="none" xmlns="http://www.w3.org/2000/svg">
<path d="M48 27.8C47.8 27.8 47.6 27.8 47.3 27.8C43.5 27.8 39.7 27.8 35.9 27.8C35.6 27.8 35.2 27.7 34.9 27.5C33.9 26.9 33 26.9 31.9 27.2C31 24.4 29.6 23.5 27.1 24.3C26.2 22.4 24.8 21.6 22.6 22.2C22.6 19.9 22.6 17.6 22.6 15.3C28.4 15.3 34.1 15.3 40 15.3C39.8 15.9 39.6 16.4 39.5 16.8C41.1 15.9 42.7 15.1 44.2 14.2C42.7 13.4 41.1 12.5 39.5 11.6C39.7 12.1 39.8 12.6 40 13.1C39.8 13.1 39.6 13.1 39.5 13.1C34 13.1 28.5 13.1 23 13.1C22.7 13.1 22.5 13.1 22.3 12.7C21.7 11.5 20.7 10.8 19.3 10.8C17.9 10.8 16.9 11.5 16.3 12.7C16.2 12.8 16.2 12.9 16.1 13.1C15.1 13.1 14.1 13.1 13.2 13.1C12.7 13.1 12.3 13.3 12.2 13.8C12.1 14.3 12.2 14.7 12.7 14.9C12.9 15 13.2 15 13.4 15C14.3 15 15.1 15 16 15C16 17 16 18.9 16 20.9C15.8 20.9 15.7 20.9 15.6 20.8C13.5 20.3 11.6 21.7 11.5 23.9C11.4 25 11.5 26.2 11.5 27.4C7.7 27.4 3.9 27.4 0 27.4C0 18.3 0 9.2 0 0C16 0 32.1 0 48.2 0C48 9.5 48 18.6 48 27.8ZM6.5 8.1C7.5 8.6 7.9 9.3 7.9 10.3C8 11 8.4 11.4 9 11.4C9.6 11.4 9.9 10.9 9.9 10.2C9.9 8.4 8.7 6.8 6.9 6.2C6.6 6 6.5 5.8 6.5 5.5C6.5 4.9 6.5 4.2 6.5 3.6C6.5 2.9 6.1 2.5 5.5 2.5C4.9 2.5 4.6 2.9 4.5 3.6C4.5 4.3 4.5 4.9 4.5 5.6C4.5 5.8 4.3 6.1 4.1 6.1C2.1 6.9 1 8.4 1 10.4C1 12.3 2.1 13.9 4.1 14.7C4.2 14.8 4.5 14.9 4.5 15C4.5 16.5 4.5 18 4.5 19.6C3.5 19.1 3.1 18.4 3 17.4C3 16.7 2.5 16.3 1.9 16.3C1.3 16.3 0.9 16.8 1 17.5C1.1 19.1 1.8 20.3 3.1 21.1C3.5 21.4 4 21.5 4.4 21.7C4.4 22.5 4.4 23.2 4.4 24C4.4 24.7 4.7 25.1 5.3 25.2C5.9 25.2 6.3 24.8 6.4 24.1C6.4 23.5 6.4 22.8 6.4 22.2C6.4 21.8 6.5 21.7 6.9 21.5C7.7 21.1 8.4 20.8 8.9 20.2C11 17.9 10 14.3 7 13.1C6.8 13 6.5 12.8 6.5 12.6C6.5 11.2 6.5 9.7 6.5 8.1ZM27.9 4.9C33.1 4.9 38.4 4.9 43.6 4.9C43.8 4.9 44 4.9 44.2 4.9C44.7 4.8 45 4.5 45.1 4C45.1 3.5 44.9 3.1 44.4 3C44.2 2.9 43.9 2.8 43.7 2.8C33.2 2.8 22.7 2.8 12.2 2.8C12 2.8 11.7 2.8 11.5 2.9C11 3 10.8 3.4 10.8 3.9C10.8 4.4 11.1 4.8 11.7 4.8C11.9 4.8 12.2 4.8 12.4 4.8C17.5 4.9 22.7 4.9 27.9 4.9ZM27.9 6.9C22.7 6.9 17.4 6.9 12.2 6.9C11.2 6.9 10.7 7.2 10.7 7.9C10.7 8.6 11.2 8.9 12.2 8.9C22.7 8.9 33.1 8.9 43.6 8.9C44.6 8.9 45.1 8.6 45.1 7.9C45.1 7.2 44.6 6.9 43.6 6.9C38.4 6.9 33.2 6.9 27.9 6.9Z" fill="white"/>
<path d="M17 49.4C16.7 48 16.4 46.6 16.1 45.3C15.4 41.9 14.6 38.5 14 35.1C13.4 31.6 13.3 28 13.4 24.5C13.4 23.7 14 23.1 14.7 23.1C15.5 23.1 16 23.6 16 24.5C16 27.2 16 30 16 32.7C16 33 16 33.2 16.1 33.4C16.2 33.9 16.6 34.2 17 34.2C17.5 34.2 17.9 33.9 18 33.4C18 33.1 18 32.9 18 32.6C18 26.7 18 20.8 18 14.9C18 14.6 18 14.4 18 14.1C18.1 13.4 18.6 13 19.3 13C20 13 20.5 13.4 20.6 14.1C20.6 14.4 20.6 14.6 20.6 14.9C20.6 20.8 20.6 26.8 20.6 32.7C20.6 33.7 20.9 34.2 21.6 34.2C22.3 34.2 22.6 33.7 22.6 32.7C22.6 30.4 22.6 28.1 22.6 25.7C22.6 25.3 22.7 24.9 22.9 24.6C23.2 24.1 23.7 24 24.3 24.1C24.9 24.2 25.2 24.6 25.2 25.2C25.2 26 25.2 26.9 25.2 27.7C25.2 29.5 25.2 31.3 25.2 33.1C25.2 33.8 25.6 34.2 26.2 34.2C26.8 34.2 27.2 33.8 27.2 33.1C27.2 32.9 27.2 32.7 27.2 32.5C27.2 30.8 27.2 29.1 27.2 27.5C27.2 26.5 27.8 26 28.6 26C29.3 26 29.8 26.6 29.8 27.5C29.8 29.2 29.8 30.9 29.8 32.6C29.8 32.8 29.8 33 29.8 33.2C29.9 33.8 30.3 34.1 30.8 34.1C31.3 34.1 31.8 33.7 31.8 33.2C31.8 32.3 31.8 31.3 31.8 30.4C31.8 29.5 32.5 28.9 33.4 29.1C34 29.2 34.5 29.8 34.4 30.6C34.2 32.3 34.1 34.1 33.7 35.8C32.6 40.2 31.4 44.5 30.2 48.8C30.1 49.1 30.1 49.4 29.5 49.4C25.4 49.4 21.3 49.4 17.2 49.4C17.3 49.4 17.2 49.4 17 49.4Z" fill="white"/>
<path d="M4.50001 12.5C3.70001 12.2 3.10001 11.4 3.10001 10.5C3.10001 9.4 3.60001 8.6 4.50001 8.2C4.50001 9.6 4.50001 11 4.50001 12.5Z" fill="white"/>
<path d="M6.60001 15.2C7.50001 15.5 8.00001 16.4 8.00001 17.3C8.00001 18.3 7.50001 19.1 6.60001 19.5C6.60001 18 6.60001 16.6 6.60001 15.2Z" fill="white"/>
</svg>
