<svg width="51" height="60" viewBox="0 0 51 60" fill="none" xmlns="http://www.w3.org/2000/svg">
<path d="M47.9 0C47.9 1.9 47.9 3.8 47.9 5.8C47.9 6.1 47.8 6.4 47.6 6.6C46.6 7.9 45.5 9.2 44.4 10.4C44.2 10.6 43.9 10.7 43.7 10.7C39.5 10.7 35.4 10.7 31.2 10.7C29.8 10.7 29 9.9 29 8.5C29 5.7 29 2.8 29 0C35.3 0 41.6 0 47.9 0Z" fill="white"/>
<path d="M32.8 59.2C29.5 59.2 26.2 59 23.1 58C20.4 57.2 18.1 55.8 16.6 53.3C15.6 51.6 15.2 49.8 15.1 47.9C14.9 42.8 16.5 38.1 18.9 33.7C19.6 32.5 20.4 31.4 21.2 30.2C21.4 29.9 21.6 29.8 22 29.9C24.5 30.7 27 31 29.6 31C32.9 31 36.2 31 39.5 31C41 31 42.5 30.7 43.9 30.1C44.2 29.9 44.4 30 44.6 30.3C48.1 35.1 50.2 40.3 50.6 46.3C50.7 49 50.3 51.6 48.8 53.8C47.2 56.1 44.8 57.3 42.2 58.1C39.1 59 36 59.2 32.8 59.2ZM29.2 47C28.5 48 27.9 49 27.2 50C28.4 50.8 29.5 51.6 30.9 52C31 52 31.2 52.3 31.2 52.5C31.2 53 31.2 53.5 31.2 54C32.4 54 33.6 54 34.8 54C34.8 53.4 34.8 52.9 34.8 52.4C34.8 52.1 34.9 51.9 35.2 51.7C37.2 50.8 38.4 48.9 38.2 46.6C38.1 44.4 36.8 43.1 34.8 42.4C34 42.1 33.2 41.7 32.4 41.4C31.7 41.1 31.7 40.6 32.2 40.1C32.4 39.9 32.8 39.7 33.1 39.7C34 39.6 34.8 39.9 35.5 40.3C35.9 40.5 36.4 40.8 36.8 41C37.4 39.9 37.9 38.9 38.5 37.8C37.3 37.3 36.2 36.8 35.1 36.3C34.9 36.1 34.8 35.9 34.8 35.6C34.8 35.2 34.8 34.8 34.8 34.3C33.6 34.3 32.4 34.3 31.2 34.3C31.2 34.8 31.2 35.3 31.2 35.8C31.2 36.1 31.1 36.3 30.8 36.5C29.1 37.4 28.3 38.9 28.3 40.7C28.3 42.4 29.2 43.6 30.7 44.4C31.7 44.9 32.8 45.3 33.8 45.8C34.6 46.1 34.8 46.7 34.5 47.5C34.2 48.2 33.7 48.5 33 48.6C32.1 48.7 31.2 48.5 30.5 47.9C30.2 47.6 29.7 47.3 29.2 47Z" fill="white"/>
<path d="M14.9 6.5C18.4 6.5 21.9 6.5 25.4 6.5C25.4 7 25.4 7.5 25.4 8C25.4 9.4 25.6 10.8 26.5 12C27.7 13.6 29.3 14.3 31.2 14.3C35.5 14.3 39.8 14.3 44.2 14.3C45.8 14.3 46.3 14.8 46.3 16.4C46.3 18.2 46.4 19.9 46.2 21.7C45.9 24.9 43.1 27.5 39.9 27.5C36.1 27.5 32.3 27.6 28.4 27.5C23.3 27.3 18.9 25.5 15.1 22.2C15 22 14.8 21.8 14.8 21.6C14.8 16.7 14.8 11.7 14.8 6.8C14.8 6.7 14.9 6.6 14.9 6.5Z" fill="white"/>
<path d="M11.2 21.9C7.4 21.9 3.7 21.9 0 21.9C0 15.8 0 9.8 0 3.7C3.7 3.7 7.5 3.7 11.2 3.7C11.2 9.7 11.2 15.8 11.2 21.9Z" fill="white"/>
</svg>
