<svg width="49" height="62" viewBox="0 0 49 62" fill="none" xmlns="http://www.w3.org/2000/svg">
<path d="M32.2465 61.4732C30.9465 61.4732 29.6465 61.4732 28.4465 61.4732C27.2465 61.2732 26.0465 61.1732 24.8465 60.9732C19.4465 59.9732 15.0465 57.3732 11.9465 52.6732C8.14649 47.1732 4.44649 41.5732 0.846492 35.9732C0.646492 35.7732 0.546492 35.4732 0.446492 35.1732C-0.353509 33.5732 -0.0535085 31.4732 1.14649 30.1732C2.24649 28.9732 4.14649 28.5732 5.84649 29.2732C6.84649 29.6732 7.54649 30.4732 8.24649 31.2732C9.64649 33.2732 11.1465 35.1732 12.5465 37.1732C12.6465 37.2732 12.7465 37.3732 12.9465 37.6732C12.9465 37.3732 12.9465 37.2732 12.9465 37.0732C12.9465 27.5732 12.9465 18.0732 12.9465 8.67316C12.9465 8.27316 12.9465 7.87316 13.0465 7.47316C13.3465 5.67316 15.0465 4.47316 16.8465 4.67316C18.7465 4.87316 20.0465 6.37316 20.0465 8.47316C20.0465 14.1732 20.0465 19.7732 20.0465 25.4732C20.0465 25.7732 20.0465 26.0732 20.1465 26.3732C20.2465 26.8732 20.6465 27.1732 21.2465 27.1732C21.8465 27.1732 22.2465 26.8732 22.3465 26.3732C22.4465 26.0732 22.4465 25.7732 22.4465 25.4732C22.4465 18.2732 22.4465 11.1732 22.4465 3.97316C22.4465 3.77316 22.4465 3.57316 22.4465 3.27316C22.6465 0.97316 24.8465 -0.52684 27.0465 0.17316C28.6465 0.67316 29.5465 1.97316 29.5465 3.87316C29.5465 11.0732 29.5465 18.2732 29.5465 25.4732C29.5465 25.7732 29.5465 25.9732 29.6465 26.2732C29.7465 26.7732 30.2465 27.1732 30.7465 27.1732C31.3465 27.1732 31.7465 26.8732 31.8465 26.2732C31.8465 26.0732 31.9465 25.8732 31.9465 25.6732C31.9465 19.1732 31.9465 12.6732 31.9465 6.17316C31.9465 5.07316 32.2465 4.07316 33.1465 3.27316C34.2465 2.27316 35.5465 2.07316 36.9465 2.67316C38.4465 3.37316 39.0465 4.57316 39.0465 6.17316C39.0465 13.3732 39.0465 20.5732 39.0465 27.7732C39.0465 28.8732 39.4465 29.4732 40.2465 29.4732C41.0465 29.4732 41.4465 28.9732 41.4465 27.7732C41.4465 23.1732 41.4465 18.6732 41.4465 14.0732C41.4465 13.5732 41.4465 13.0732 41.5465 12.5732C41.7465 10.8732 43.0465 9.57316 44.7465 9.37316C46.5465 9.27316 48.0465 10.2732 48.4465 11.9732C48.6465 12.5732 48.5465 13.2732 48.5465 13.9732C48.5465 24.0732 48.5465 34.0732 48.5465 44.1732C48.5465 45.4732 48.4465 46.7732 48.2465 48.0732C47.0465 55.0732 42.4465 59.6732 35.5465 60.9732C34.2465 61.1732 33.2465 61.2732 32.2465 61.4732Z" fill="white"/>
</svg>
