<svg width="64" height="44" viewBox="0 0 64 44" fill="none" xmlns="http://www.w3.org/2000/svg">
<path d="M63.794 40.8C63.594 41.2 63.494 41.6 63.294 41.9C62.694 43 61.794 43.6 60.494 43.7C60.294 43.7 60.094 43.7 59.894 43.7C41.194 43.7 22.494 43.7 3.89397 43.7C2.39397 43.7 1.09397 43.2 0.393971 41.8C-0.206029 40.8 -0.106029 40.3 0.593971 39.4C2.19397 37.5 3.79397 35.6 5.39397 33.7C5.69397 33.3 5.89397 32.9 5.89397 32.4C5.89397 22.6 5.89397 12.8 5.89397 3C5.89397 2.6 5.89397 2.3 5.89397 1.9C6.09397 0.9 6.89397 0.1 7.89397 0C8.09397 0 8.39397 0 8.59397 0C23.994 0 39.494 0 54.894 0C55.294 0 55.694 2.23517e-08 55.994 0.1C56.994 0.4 57.694 1.3 57.694 2.5C57.694 3.2 57.694 3.9 57.694 4.6C57.694 13.9 57.694 23.1 57.694 32.4C57.694 32.9 57.794 33.3 58.094 33.6C59.794 35.6 61.494 37.6 63.094 39.6C63.194 39.8 63.394 39.9 63.494 40C63.794 40.3 63.794 40.6 63.794 40.8ZM31.894 2.2C25.194 2.2 18.494 2.2 11.794 2.2C9.99397 2.2 9.19397 2.9 9.19397 4.8C9.19397 12.7 9.19397 20.6 9.19397 28.5C9.19397 30.3 9.89397 31.1 11.794 31.1C25.194 31.1 38.594 31.1 51.994 31.1C53.894 31.1 54.594 30.4 54.594 28.5C54.594 20.6 54.594 12.8 54.594 4.9C54.594 3 53.894 2.3 51.994 2.3C45.294 2.2 38.594 2.2 31.894 2.2ZM22.194 40.2C28.694 40.2 35.094 40.2 41.594 40.2C40.994 39.5 40.494 38.9 39.994 38.3C39.894 38.2 39.594 38.1 39.394 38.1C34.394 38.1 29.394 38.1 24.294 38.1C24.094 38.1 23.894 38.2 23.794 38.3C23.294 38.9 22.794 39.5 22.194 40.2ZM31.894 42.6C33.394 42.6 34.794 42.6 36.294 42.6C36.694 42.6 37.094 42.5 37.194 42C37.194 41.4 36.794 41.4 36.294 41.4C33.394 41.4 30.394 41.4 27.494 41.4C27.094 41.4 26.594 41.5 26.594 42C26.594 42.5 26.994 42.6 27.494 42.6C28.894 42.6 30.394 42.6 31.894 42.6Z" fill="white"/>
</svg>
