<svg width="65" height="65" viewBox="0 0 65 65" fill="none" xmlns="http://www.w3.org/2000/svg">
<path d="M46.4 64.5C44.7 63.9 44.1 62.7 44.3 60.9C43.5 61.1 42.8 61.3 42.1 61.5C37.8 62.4 33.9 61.3 30.4 58.9C29.2 58.1 29.3 56.3 30.6 55.5C31.8 54.8 33.1 54.1 34.4 53.4C34.4 53.3 34.3 53.2 34.2 53.1C31.5 50 30.1 46.2 29.7 42.2C29.5 40.6 30.6 39.7 32.2 39.9C35.4 40.4 38.5 41.4 41.2 43.3C41.4 42 41.5 40.7 41.8 39.5C42.4 36.3 43.7 33.4 45.4 30.6C46.2 29.2 48.1 29.3 49 30.7C51.2 34.4 52.6 38.3 53 42.6C53 42.8 53 42.9 53.1 43.1C53.1 43.1 53.1 43.2 53.2 43.3C53.3 43.2 53.5 43.1 53.6 43.1C56.3 41.3 59.3 40.4 62.5 39.9C63.8 39.7 64.8 40.8 64.7 42.1C64.2 46.2 62.9 50 60.1 53.1C60 53.2 59.9 53.3 59.9 53.4C61.1 54.1 62.4 54.7 63.6 55.4C65.2 56.3 65.1 58.1 63.6 59.1C61.3 60.6 58.9 61.6 56.1 61.8C54.3 62 52.6 61.7 50.8 61.2C50.5 61.1 50.3 61 49.9 60.9C50.1 62.7 49.5 63.9 47.8 64.5C47.1 64.5 46.8 64.5 46.4 64.5Z" fill="white"/>
<path d="M0 56C0.5 54.2 0.9 52.4 1.4 50.7C2.3 47 4.5 44.6 8.1 43.4C11.2 42.4 14.3 41.3 17.4 40.3C18.1 40.1 18.6 39.7 18.8 39C19.1 38 19.3 37 19.5 35.9C19.5 35.7 19.3 35.5 19.2 35.3C18.1 34.1 17.1 32.9 16.5 31.4C16.2 30.5 16.3 29.4 15.8 28.6C15.3 27.8 14.7 27 14.5 26.1C14.2 24.9 13.9 23.7 13.7 22.5C13.5 21.3 13.9 20.3 14.6 19.3C14.7 19.1 14.9 18.9 14.9 18.6C15 17.3 15.1 16 15 14.7C14.9 11.6 15.9 9 17.7 6.6C20.1 3.3 23.3 1 27.4 0.2C27.7 0.0999999 28 0.1 28.3 0C29.2 0 30.1 0 30.9 0C31.8 0.2 32.7 0.3 33.6 0.5C36.1 1.2 38.3 2.3 39.9 4.4C40.7 5.5 41.4 6.5 42.3 7.4C43.7 8.9 44 10.9 44.1 12.9C44.2 14.7 44.1 16.5 44.1 18.2C44.1 18.6 44.2 19 44.5 19.3C45.7 20.8 45.4 22.5 45 24.2C45 24.3 44.7 24.4 44.6 24.5C42.8 25.1 41.5 26.2 40.6 27.8C39.3 30 38.2 32.3 37.4 34.8C37.3 35 37.3 35.1 37.2 35.3C36.3 35.1 35.3 34.9 34.4 34.7C34.3 34.7 34.1 34.4 34.1 34.3C34.1 33.5 34.4 32.9 35 32.3C35.8 31.5 36.5 30.7 37.2 29.9C37.6 29.4 37.7 28.7 37.8 28.1C38 26.8 38.4 25.7 39.2 24.7C39.6 24.2 39.7 23.4 39.9 22.8C39.9 22.7 39.8 22.5 39.7 22.4C39.1 21.8 38.8 21 38.8 20.1C38.8 17.7 38.8 15.3 38.8 12.9C38.8 12.5 38.7 12.1 38.7 11.7C38.6 11.2 38.3 10.8 37.8 10.5C36.8 10 36.2 9.3 36 8.2C35.9 7.8 35.6 7.4 35.3 7.1C34.2 6.1 32.8 5.7 31.3 5.4C26.8 4.7 21.5 8.4 20.6 12.9C20.6 13.1 20.5 13.4 20.5 13.6C20.4 15.9 20.3 18.2 20.3 20.5C20.3 21.2 20 21.8 19.6 22.3C19.5 22.5 19.4 22.7 19.4 22.9C19.6 23.7 19.8 24.4 20.4 25C21.1 25.8 21.4 26.8 21.4 27.8C21.4 28.7 21.7 29.5 22.3 30.2C22.8 30.8 23.4 31.5 24 32C24.8 32.7 25.2 33.6 25.1 34.7C25 37.3 24.7 39.8 23.3 42C22.4 43.5 21.1 44.5 19.5 45C16.3 46 13.2 47.1 10 48.2C8.3 48.8 7.2 49.9 6.8 51.6C6.7 52.2 6.5 52.8 6.3 53.5C12.6 53.5 18.8 53.5 25.2 53.5C24.4 55.3 24.1 57 24.6 58.9C24.3 58.9 24 58.9 23.8 58.9C17.1 58.9 10.4 58.9 3.7 58.9C2 58.9 0.9 58.4 0.2 56.8C-1.49012e-08 56.7 0 56.3 0 56Z" fill="white"/>
</svg>
