<svg width="60" height="60" viewBox="0 0 60 60" fill="none" xmlns="http://www.w3.org/2000/svg">
<path d="M0 21.6681C0 19.3681 0 17.0681 0 14.6681C0.7 12.2681 2.4 11.3681 4.9 11.4681C6 11.5681 7.1 11.4681 8.2 11.4681C8.1 11.2681 8 11.1681 8 10.9681C6.6 8.26805 6.8 5.56805 8.6 3.16805C11.3 -0.631945 16.5 -1.03195 20.1 2.06805C21.8 3.56805 23.4 5.06805 25.1 6.56805C25.2 6.66805 25.4 6.76805 25.5 6.96805C28.4 4.46805 30.8 4.46805 34.1 6.96805C34.2 6.86805 34.3 6.86805 34.4 6.76805C36.2 5.06806 38 3.36805 39.9 1.76805C42.3 -0.231946 45.7 -0.531946 48.4 0.968054C51.2 2.46805 52.7 5.46805 52.3 8.56805C52.2 9.56805 51.8 10.5681 51.5 11.5681C51.6 11.5681 51.8 11.5681 52 11.5681C53.3 11.5681 54.5 11.5681 55.8 11.5681C57.5 11.5681 58.9 12.6681 59.4 14.2681C59.5 14.4681 59.5 14.6681 59.6 14.8681C59.6 17.1681 59.6 19.4681 59.6 21.7681C59.2 22.8681 58.3 23.2681 57.1 23.2681C38.9 23.2681 20.6 23.2681 2.4 23.2681C1.3 23.1681 0.4 22.7681 0 21.6681ZM23.9 11.4681C24 11.0681 23.9 10.7681 23.6 10.4681C21.5 8.56806 19.4 6.66805 17.3 4.76805C15.1 2.86805 11.8 3.96806 11.1 6.76805C10.5 9.16805 12.3 11.4681 14.9 11.4681C17.8 11.4681 20.6 11.4681 23.5 11.4681C23.7 11.4681 23.8 11.4681 23.9 11.4681ZM35.5 11.3681C35.7 11.4681 35.7 11.4681 35.7 11.4681C38.7 11.4681 41.7 11.4681 44.7 11.4681C44.9 11.4681 45.1 11.4681 45.3 11.3681C46.9 11.0681 48.1 9.86805 48.4 8.36805C48.7 6.86805 48.1 5.26805 46.8 4.46805C45.2 3.46805 43.4 3.66805 41.9 4.96805C39.9 6.76805 37.8 8.66805 35.8 10.4681C35.7 10.7681 35.7 11.0681 35.5 11.3681Z" fill="white"/>
<path d="M7.69999 59.3681C7.09999 59.1681 6.49999 59.0681 5.89999 58.8681C4.49999 58.0681 3.89999 56.8681 3.89999 55.2681C3.89999 51.9681 3.89999 48.7681 3.89999 45.4681C3.89999 39.5681 3.89999 33.6681 3.89999 27.8681C3.89999 27.6681 3.89999 27.3681 3.89999 27.1681C11.3 27.1681 18.5 27.1681 25.9 27.1681C25.9 27.3681 25.9 27.5681 25.9 27.7681C25.9 38.1681 25.9 48.4681 25.9 58.8681C25.9 59.0681 25.9 59.2681 25.8 59.4681C19.8 59.3681 13.7 59.3681 7.69999 59.3681Z" fill="white"/>
<path d="M33.8 59.368C33.8 59.168 33.7 58.868 33.7 58.668C33.7 48.368 33.7 37.968 33.7 27.668C33.7 27.468 33.7 27.268 33.7 26.968C41.1 26.968 48.4 26.968 55.7 26.968C55.7 27.168 55.7 27.468 55.7 27.668C55.7 36.768 55.7 45.868 55.7 54.868C55.7 57.368 54.6 58.768 52.1 59.268C52 59.268 52 59.2681 51.9 59.368C45.9 59.368 39.8 59.368 33.8 59.368Z" fill="white"/>
</svg>
