<svg width="73" height="73" viewBox="0 0 73 73" fill="none" xmlns="http://www.w3.org/2000/svg">
<path d="M34.1 0C35.6 0 37.1 0 38.7 0C39.9 0.2 41.2 0.3 42.4 0.5C49.2 1.7 55.3 4.5 60.5 9.1C66.8 14.7 70.8 21.7 72.3 30.1C72.5 31.4 72.7 32.8 72.9 34.1C72.9 35.6 72.9 37.1 72.9 38.6C72.7 39.8 72.6 41 72.4 42.2C70.7 51.7 66.1 59.4 58.5 65.3C50.5 71.4 41.5 73.7 31.5 72.4C24.3 71.5 17.9 68.5 12.4 63.7C6 58.1 2.1 51.1 0.6 42.7C0.4 41.4 0.2 40 0 38.6C0 37.1 0 35.6 0 34.1C0.2 32.9 0.3 31.7 0.5 30.5C1.8 22.9 5.1 16.4 10.5 10.9C15.9 5.4 22.5 1.9 30.2 0.6C31.4 0.4 32.8 0.2 34.1 0ZM36.4 19.9C30.2 19.9 24.1 19.9 17.9 19.9C14.8 19.9 12.9 21.8 12.9 24.9C12.9 32.6 12.9 40.3 12.9 48C12.9 51.1 14.8 53 17.9 53C30.2 53 42.5 53 54.8 53C57.9 53 59.9 50.7 59.9 48C59.8 40.3 59.8 32.7 59.9 25C59.9 22.2 58 19.9 54.8 20C48.7 19.9 42.6 19.9 36.4 19.9Z" fill="white"/>
<path d="M16.7 25.5C18.9 27.3 21 28.9 23.1 30.6C27.1 33.7 31 36.9 35 40C36 40.8 36.8 40.8 37.8 40C43.5 35.5 49.3 30.9 55 26.4C55.3 26.2 55.6 25.9 56.1 25.6C56.1 26 56.1 26.3 56.1 26.5C56.1 33.6 56.1 40.7 56.1 47.8C56.1 49.1 55.9 49.2 54.7 49.2C42.5 49.2 30.3 49.2 18.1 49.2C16.9 49.2 16.7 49 16.7 47.8C16.7 40.7 16.7 33.6 16.7 26.4C16.7 26.2 16.7 26 16.7 25.5Z" fill="white"/>
<path d="M20.5 23.7C31.1 23.7 41.7 23.7 52.2 23.7C52.3 23.8 52.4 23.8 52.4 23.9C52.2 24 52 24 51.9 24.1C46.9 28.1 41.9 32 36.9 36C36.6 36.2 36.4 36.4 36.1 36.1C31 32 25.9 28 20.8 24C20.7 23.9 20.6 23.8 20.5 23.7Z" fill="white"/>
</svg>
