<svg width="148" height="148" viewBox="0 0 148 148" fill="none" xmlns="http://www.w3.org/2000/svg">
<path d="M134.1 74.7C133.5 75.7 133 76.7 132.4 77.6C123.9 88.2 114.1 97.3 102.3 104.1C94.5 108.6 86.2 111.6 77.2 112.2C69.8 112.7 62.7 111.5 55.9 108.8C45.5 104.9 36.6 98.6 28.5 91.2C23.7 86.8 19.4 82.1 15.4 77C13.7 74.8 13.7 73.1 15.4 71C23.9 60.2 33.8 50.9 45.8 44C55.2 38.6 65.2 35.3 76.2 35.8C83.8 36.1 90.9 38.2 97.7 41.5C111.9 48.5 123.3 58.9 133 71.2C133.5 71.8 133.8 72.6 134.2 73.3C134.1 73.7 134.1 74.2 134.1 74.7ZM125.2 74C124.8 73.5 124.5 73.1 124.1 72.7C120.4 68.9 116.9 65 113 61.4C105.6 54.6 97.3 49.1 87.7 45.9C81.9 43.9 76 43.1 69.9 43.8C62.1 44.6 55.1 47.5 48.5 51.5C39.7 56.7 32.2 63.5 25.5 71.1C24.7 72 23.9 73 23 74C25.3 76.5 27.5 79 29.8 81.4C37.5 89.2 46 95.9 56.2 100.4C61.3 102.6 66.6 104.1 72.1 104.3C80.6 104.7 88.4 102.3 95.8 98.5C104.2 94.2 111.4 88.3 118 81.6C120.5 79.2 122.8 76.6 125.2 74Z" fill="#C70000"/>
<path d="M97.8 74C97.8 87.1 87.1 97.8 74 97.8C60.9 97.7 50.3 87.1 50.3 74C50.3 60.9 61 50.2 74.1 50.2C87.3 50.2 97.8 60.9 97.8 74ZM74.1 89.8C82.8 89.8 89.9 82.8 89.9 74C90 65.3 82.9 58.2 74.2 58.1C65.5 58 58.3 65.2 58.3 74C58.3 82.7 65.3 89.8 74.1 89.8Z" fill="#C70000"/>
<path d="M74.1 147.2C114.472 147.2 147.2 114.472 147.2 74.1C147.2 33.728 114.472 1 74.1 1C33.728 1 1 33.728 1 74.1C1 114.472 33.728 147.2 74.1 147.2Z" stroke="#C70000" stroke-miterlimit="10"/>
</svg>
