<svg width="41" height="56" viewBox="0 0 41 56" fill="none" xmlns="http://www.w3.org/2000/svg">
<path d="M0 20.1918C0.2 10.4918 7.1 2.1918 16.5 0.391797C27.5 -1.8082 38.3 5.4918 40.5 16.3918C41.3 20.2918 40.6 23.9918 39.1 27.6918C36.9 32.9918 34 37.8918 30.8 42.5918C28 46.6918 25 50.6918 22.1 54.6918C21.2 55.8918 19.9 55.8918 19 54.7918C13.6 47.9918 8.7 40.9918 4.6 33.3918C2.9 30.2918 1.4 26.9918 0.6 23.4918C0.3 22.3918 0.2 21.2918 0 20.1918ZM20.5 25.8918C24.5 25.8918 27.9 22.5918 27.9 18.5918C27.9 14.4918 24.6 11.0918 20.5 11.0918C16.4 11.0918 13.1 14.3918 13.1 18.4918C13 22.5918 16.4 25.8918 20.5 25.8918Z" fill="white"/>
</svg>
