<svg width="47" height="47" viewBox="0 0 47 47" fill="none" xmlns="http://www.w3.org/2000/svg">
<path d="M34.9936 46.7748C32.6936 46.5748 30.7936 46.0748 28.8936 45.3748C24.3936 43.6748 20.2936 41.1748 16.5936 38.0748C11.3936 33.7748 6.99361 28.7748 3.69361 22.8748C1.99361 19.7748 0.693608 16.5748 0.0936083 13.0748C-0.106392 12.0748 -0.0063917 11.0748 0.593608 10.1748C2.69361 6.77475 5.19361 3.57475 8.29361 0.974751C8.39361 0.874751 8.59361 0.674751 8.79361 0.574751C10.0936 -0.325249 11.1936 -0.125249 12.3936 0.874751C12.5936 0.974751 12.6936 1.17475 12.7936 1.27475C14.9936 4.27475 16.9936 7.37475 18.5936 10.7748C18.7936 11.2748 18.9936 11.7748 19.1936 12.3748C19.4936 13.2748 19.2936 14.0748 18.6936 14.7748C17.8936 15.5748 17.0936 16.3748 16.2936 17.0748C15.1936 17.9748 15.1936 17.9748 15.7936 19.2748C18.1936 24.9748 22.2936 28.9748 28.0936 31.1748C28.5936 31.3748 28.8936 31.3748 29.2936 30.8748C29.8936 30.0748 30.6936 29.2748 31.3936 28.4748C32.3936 27.3748 33.6936 26.9748 35.0936 27.6748C36.6936 28.3748 38.1936 29.1748 39.6936 29.9748C41.5936 31.0748 43.4936 32.3748 45.2936 33.6748C45.9936 34.1748 46.4936 34.8748 46.6936 35.6748C46.7936 36.1748 46.7936 36.6748 46.4936 37.1748C46.1936 37.6748 45.8936 38.2747 45.4936 38.6748C42.7936 41.6748 39.6936 44.2748 36.1936 46.2748C35.6936 46.5748 35.1936 46.6748 34.9936 46.7748Z" fill="white"/>
</svg>
