<svg width="141" height="141" viewBox="0 0 141 141" fill="none" xmlns="http://www.w3.org/2000/svg">
<path d="M58 97C60.9823 97 63.4 94.5823 63.4 91.6C63.4 88.6177 60.9823 86.2 58 86.2C55.0177 86.2 52.6 88.6177 52.6 91.6C52.6 94.5823 55.0177 97 58 97Z" fill="#BB002C"/>
<path d="M69.6 130.2C102.958 130.2 130 103.158 130 69.8C130 36.442 102.958 9.39999 69.6 9.39999C36.242 9.39999 9.2 36.442 9.2 69.8C9.2 103.158 36.242 130.2 69.6 130.2Z" fill="#BE001E"/>
<path d="M71.5 130.2C104.858 130.2 131.9 103.158 131.9 69.8C131.9 36.442 104.858 9.39999 71.5 9.39999C38.142 9.39999 11.1 36.442 11.1 69.8C11.1 103.158 38.142 130.2 71.5 130.2Z" fill="#DA0015"/>
<path d="M70.6 140.2C109.039 140.2 140.2 109.039 140.2 70.6C140.2 32.161 109.039 1 70.6 1C32.161 1 1 32.161 1 70.6C1 109.039 32.161 140.2 70.6 140.2Z" stroke="#BB002C" stroke-width="0.75" stroke-miterlimit="10"/>
<path d="M32.4 92.4C32.4 74.2 32.4 56 32.4 37.8C32.9 36.4 33.9 35.8 35.3 35.8C58.8 35.8 82.3 35.8 105.8 35.8C107.8 35.8 108.8 36.8 108.8 38.8C108.8 56.3 108.8 73.8 108.8 91.4C108.8 93.4 107.8 94.4 105.8 94.4C102.4 94.4 99.1 94.4 95.7 94.4C95.4 94.4 95.2 94.4 94.9 94.4C94.9 97.2 94.9 99.9 94.9 102.5C94.9 105 93 106.1 90.8 105C89 104.1 87.2 103.2 85.4 102.3C85.1 102.2 84.7 102.2 84.4 102.3C82.7 103.1 80.9 103.9 79.3 104.9C76.9 106.3 74.8 104.7 74.9 102.2C75.1 99.8 74.9 97.5 74.9 95.1C74.9 94.8 74.9 94.6 74.9 94.3C74.5 94.3 74.2 94.3 73.9 94.3C61.2 94.3 48.5 94.3 35.8 94.3C34.2 94.4 33.1 93.9 32.4 92.4ZM103.6 41C81.6 41 59.7 41 37.7 41C37.7 57.1 37.7 73.1 37.7 89.1C50.1 89.1 62.5 89.1 75 89.1C75 87.8 75 86.6 75 85.3C75 84.5 74.8 83.9 74.2 83.4C70.2 79 68.9 73.9 70.8 68.3C73.2 61.2 79.8 57.3 87.3 58.3C93.9 59.2 99.4 65.1 99.9 71.7C100.2 76.4 98.8 80.5 95.4 83.8C95.2 84 95 84.2 95 84.4C95 86 95 87.6 95 89.2C97.9 89.2 100.8 89.2 103.7 89.2C103.6 73.1 103.6 57 103.6 41ZM75.1 73C75.1 78.4 79.5 82.8 84.9 82.9C90.3 82.9 94.8 78.5 94.8 73.1C94.8 67.7 90.4 63.3 85 63.3C79.5 63.2 75.1 67.6 75.1 73ZM89.7 98.7C89.7 94.8 89.7 91.1 89.7 87.2C86.5 88.2 83.3 88.2 80.1 87.2C80.1 91.1 80.1 94.8 80.1 98.7C81.2 98.1 82.3 97.6 83.4 97.1C84.4 96.6 85.4 96.5 86.4 97.1C87.4 97.6 88.5 98.1 89.7 98.7Z" fill="white"/>
<path d="M58.5 127.1C63.6 127.1 68.7 127.1 73.8 127.1C75.4 127.1 76.6 128.2 76.5 129.8C76.5 131 75.6 132 74.4 132.2C74 132.3 73.7 132.3 73.3 132.3C63.4 132.3 53.4 132.3 43.5 132.3C43 132.3 42.5 132.3 42.1 132.2C40.9 131.9 40.2 130.7 40.3 129.4C40.4 128.2 41.4 127.3 42.7 127.2C43.9 127.2 45 127.2 46.2 127.2C50.3 127.1 54.4 127.1 58.5 127.1Z" fill="white"/>
<path d="M84.9 63.6C81.9 63.6 78.9 63.6 76 63.6C74.8 63.6 73.9 62.9 73.5 61.8C73.2 60.8 73.5 59.6 74.4 59C74.9 58.7 75.6 58.4 76.2 58.4C82 58.4 87.8 58.4 93.5 58.4C95.1 58.4 96.3 59.5 96.3 61C96.3 62.5 95.1 63.6 93.4 63.6C90.6 63.7 87.7 63.6 84.9 63.6Z" fill="white"/>
<path d="M82.6 71.8C84.8 71.8 87.1 71.8 89.3 71.8C90.6 71.8 91.5 72.6 91.8 73.9C92 75 91.5 76.2 90.4 76.7C90.1 76.8 89.8 76.9 89.6 76.9C85 76.9 80.3 76.9 75.7 76.9C74.5 76.9 73.6 75.9 73.5 74.9C73.3 73.7 73.9 72.5 75 72.1C75.4 71.9 75.9 71.9 76.3 71.9C78.3 71.8 80.4 71.8 82.6 71.8Z" fill="white"/>
</svg>
