<svg width="73" height="73" viewBox="0 0 73 73" fill="none" xmlns="http://www.w3.org/2000/svg">
<path d="M34.1 0C35.6 0 37.1 0 38.6 0C39.8 0.2 41 0.3 42.2 0.5C50.9 2 58.2 6.1 63.9 12.8C71.1 21.3 73.9 31.2 72.2 42.2C70.7 51.7 66 59.5 58.3 65.3C50.4 71.4 41.4 73.7 31.5 72.4C24.2 71.5 17.9 68.5 12.4 63.6C6.1 58 2.1 51.1 0.6 42.7C0.4 41.4 0.2 40 0 38.7C0 37.2 0 35.7 0 34.2C0.1 33.3 0.2 32.4 0.3 31.5C1.4 23.6 4.8 16.7 10.4 11C15.8 5.5 22.4 2 30.1 0.6C31.5 0.4 32.8 0.2 34.1 0ZM46 23.8C46 21.4 46 19 46 16.6C45.9 16.6 45.8 16.5 45.8 16.5C43.2 16.5 40.5 16.4 37.9 16.6C35.2 16.8 33.1 18.2 31.8 20.6C30.9 22.3 30.7 24 30.7 25.9C30.7 27.3 30.7 28.6 30.7 30.1C29.3 30.1 28 30.1 26.6 30.1C26.6 32.6 26.6 35.1 26.6 37.6C28 37.6 29.3 37.6 30.7 37.6C30.7 44.6 30.7 51.6 30.7 58.6C33.6 58.6 36.5 58.6 39.5 58.6C39.5 51.6 39.5 44.6 39.5 37.5C41.5 37.5 43.4 37.5 45.4 37.5C45.7 35 45.9 32.6 46.2 30.1C43.9 30.1 41.8 30.1 39.5 30.1C39.5 28.7 39.5 27.4 39.5 26.1C39.5 24.2 40 23.7 42 23.7C43.3 23.8 44.7 23.8 46 23.8Z" fill="white"/>
</svg>
