<svg width="74" height="73" viewBox="0 0 74 73" fill="none" xmlns="http://www.w3.org/2000/svg">
<path d="M34.2 0C35.7 0 37.2 0 38.8 0C39 0 39.2 0.1 39.3 0.1C45 0.5 50.3 2.2 55.2 5.1C64.6 10.9 70.4 19.2 72.5 30.2C72.7 31.5 72.9 32.9 73.1 34.2C73.1 35.7 73.1 37.2 73.1 38.8C73 39.3 73 39.7 72.9 40.2C72.1 47.4 69.5 53.9 64.9 59.5C59.2 66.5 51.8 70.8 42.9 72.4C41.6 72.6 40.2 72.8 38.8 73C37.3 73 35.8 73 34.2 73C33.3 72.9 32.4 72.8 31.5 72.7C24.8 71.7 18.7 69.2 13.5 64.9C6.5 59.2 2.2 51.8 0.6 42.9C0.4 41.6 0.2 40.2 0 38.8C0 37.3 0 35.8 0 34.2C0.1 33.7 0.1 33.3 0.2 32.8C1 25.1 4 18.2 9.1 12.4C14.8 6 21.8 2 30.3 0.6C31.6 0.3 32.9 0.2 34.2 0ZM15.3 58.1C15.6 58 15.8 58 16 58C19.4 57.1 22.8 56.2 26.3 55.3C26.7 55.2 27.2 55.3 27.5 55.4C31.5 57.4 35.7 58.1 40.2 57.6C52.3 56 60.8 44.7 59 32.6C57.2 20.6 45.7 12.4 33.8 14.5C19.1 17 11.2 33.2 18.2 46.4C18.4 46.7 18.4 47.2 18.3 47.6C17.2 51 16.3 54.5 15.3 58.1Z" fill="white"/>
<path d="M20.5 52.9C21.1 50.8 21.6 48.9 22.1 46.9C22.2 46.4 22.2 46 21.9 45.6C15.2 34.8 21 21 33.3 18.2C43.4 15.9 53.6 22.8 55.1 33.1C56.6 43.1 49.9 52.3 39.9 53.9C35.6 54.6 31.5 53.7 27.8 51.5C27.5 51.3 27 51.3 26.7 51.3C24.7 51.8 22.7 52.4 20.5 52.9ZM43 46.4C43.4 46.4 43.7 46.4 44 46.3C46.5 45.8 48.4 44.3 48.3 41.6C48.3 41.3 48.1 40.9 47.9 40.8C46.4 40 44.8 39.3 43.3 38.6C42.9 38.4 42.5 38.5 42.2 38.9C41.7 39.6 41.1 40.2 40.6 40.9C40.3 41.3 39.9 41.4 39.4 41.2C36.2 39.9 33.8 37.8 32 34.8C31.7 34.3 31.8 34 32.1 33.6C32.5 33.1 33 32.5 33.3 31.9C33.5 31.6 33.6 31.1 33.5 30.8C33 29.4 32.4 27.9 31.7 26.5C31.6 26.2 31.3 25.9 31.1 25.8C30.4 25.4 28.7 25.7 28.2 26.3C26.5 28 25.9 30 26.4 32.3C26.8 34.3 27.9 35.9 29.1 37.5C31.4 40.5 34.1 43.2 37.6 44.8C39.3 45.6 41 46.4 43 46.4Z" fill="white"/>
</svg>
