<svg width="148" height="148" viewBox="0 0 148 148" fill="none" xmlns="http://www.w3.org/2000/svg">
<path d="M67.6 58.6C67.4 59 67.3 59.5 67.1 59.9C63.7 69.2 60.3 78.6 56.9 87.9C55.9 90.7 53.4 92 51 90.9C50.1 90.5 49.3 89.7 48.8 88.9C44.6 82.7 40.5 76.5 36.4 70.3C36.2 69.9 35.9 69.6 35.6 69.1C35.3 69.5 35.1 69.7 34.9 70.1C33.5 72.2 32.1 74.3 30.7 76.4C29.8 77.8 28.5 78.5 26.9 78.5C24.1 78.5 21.4 78.5 18.6 78.5C16.1 78.5 14.2 76.6 14.2 74.2C14.2 71.8 16.1 70 18.6 69.9C20.3 69.9 22.1 70 23.8 69.9C24.3 69.9 25 69.5 25.3 69.1C27.5 65.9 29.6 62.7 31.8 59.4C33.9 56.2 37.4 56.2 39.5 59.4C43.2 64.9 47 70.5 50.7 76.1C51 76.5 51.3 76.9 51.7 77.5C51.9 76.9 52.1 76.5 52.3 76.1C56.8 63.8 61.2 51.6 65.7 39.3C65.8 39 65.9 38.7 66 38.4C66.8 36.5 68.6 35.5 70.5 35.7C72.5 35.9 74 37.4 74.3 39.5C75.1 46 75.9 52.4 76.7 58.9C78 69.2 79.3 79.4 80.8 89.8C81 89.4 81.1 89 81.3 88.6C84.7 79.3 88.1 70 91.4 60.7C92.1 58.8 93.1 57.5 95.2 57.2C97.3 56.9 98.6 58 99.7 59.7C103.8 65.8 107.9 71.9 111.9 78.1C112.2 78.5 112.5 78.9 112.8 79.4C114.1 77.4 115.5 75.7 116.5 73.7C118 70.9 120.2 69.6 123.4 70C125.5 70.2 127.6 70 129.7 70C132.3 70 134.2 71.9 134.2 74.3C134.2 76.7 132.3 78.5 129.8 78.5C128.1 78.5 126.4 78.5 124.7 78.5C123.9 78.5 123.5 78.7 123.1 79.4C121 82.6 118.9 85.7 116.8 88.9C114.6 92.2 111 92.2 108.8 88.9C105.1 83.4 101.4 77.8 97.7 72.3C97.4 71.9 97.1 71.5 96.7 70.9C96.1 72.5 95.6 73.9 95 75.4C90.9 86.7 86.8 97.9 82.7 109.2C82.6 109.5 82.5 109.8 82.4 110.1C81.6 112 79.7 113.1 77.8 112.8C75.8 112.5 74.4 111 74.1 108.9C72.6 96.7 71 84.4 69.5 72.2C68.9 67.8 68.4 63.3 67.8 58.9C67.7 58.6 67.7 58.6 67.6 58.6Z" fill="#C70000"/>
<path d="M74.1 147.2C114.472 147.2 147.2 114.472 147.2 74.1C147.2 33.728 114.472 1 74.1 1C33.728 1 1 33.728 1 74.1C1 114.472 33.728 147.2 74.1 147.2Z" stroke="#C70000" stroke-miterlimit="10"/>
</svg>
