<svg width="148" height="148" viewBox="0 0 148 148" fill="none" xmlns="http://www.w3.org/2000/svg">
<path d="M74.1 147.2C114.472 147.2 147.2 114.472 147.2 74.1C147.2 33.728 114.472 1 74.1 1C33.728 1 1 33.728 1 74.1C1 114.472 33.728 147.2 74.1 147.2Z" stroke="#C70000" stroke-miterlimit="10"/>
<path d="M71 97.5C71 81.6 71 65.7 71 49.8C70.5 49.8 70 49.8 69.5 49.8C67.6 49.8 67.3 49.6 67.3 47.6C67.3 46.8 67.3 46.1 67.3 45.2C67 45.2 66.7 45.2 66.5 45.2C62.6 45.2 58.7 45.2 54.8 45.2C54.3 45.2 54 45.3 53.8 45.8C53.7 46 53.7 46.1 53.5 46.2C52.5 46.9 52.8 47.7 53.2 48.7C56.5 56.1 59.8 63.5 63.1 71C63.4 71.6 63.7 72 64.4 71.8C64.6 71.8 64.9 71.8 65.1 71.8C65.8 71.9 66.3 72.4 66.3 73C66.3 73.6 65.8 74.2 65.1 74.3C64.5 74.3 63.9 74.3 63.3 74.3C62.6 78.6 60.6 82 57 84.4C54.4 86.1 51.6 86.8 48.5 86.7C43 86.5 36.4 82.6 35.1 74.3C34.7 74.3 34.4 74.3 34 74.3C33.2 74.3 32.7 73.8 32.7 73.1C32.7 72.4 33.2 71.8 34 71.9C35.3 72.1 35.8 71.4 36.2 70.3C39.4 62.9 42.7 55.6 45.9 48.2C46.1 47.7 46.1 47.4 45.7 47C44 45.4 43.6 43.1 44.5 41.1C45.4 39.1 47.5 37.9 49.6 38.1C51.9 38.3 53.7 39.8 54.2 42C54.3 42.2 54.3 42.4 54.4 42.7C58.6 42.7 62.9 42.7 67.2 42.7C67.2 41.6 67.2 40.6 67.2 39.5C67.3 34.4 72.6 31 77.1 33.3C79.5 34.5 80.7 36.5 80.8 39.2C80.8 40.3 80.8 41.5 80.8 42.6C81 42.6 81.1 42.7 81.2 42.7C85.2 42.7 89.2 42.7 93.3 42.7C93.4 42.4 93.4 42.2 93.5 41.9C94.1 39.8 95.9 38.3 98.1 38C100.2 37.8 102.3 39 103.2 40.9C104.1 42.8 103.8 45.2 102.3 46.7C101.8 47.2 101.8 47.5 102.1 48.1C105.5 55.7 108.8 63.3 112.2 70.9C112.5 71.5 112.8 71.8 113.5 71.7C113.7 71.7 114 71.7 114.2 71.7C114.9 71.8 115.4 72.3 115.4 72.9C115.4 73.6 114.9 74.1 114.2 74.1C113.6 74.1 113 74.1 112.4 74.1C111.8 78 110 81.2 106.9 83.6C104.4 85.5 101.5 86.4 98.4 86.5C92.1 86.6 85.3 82 84.1 74.1C83.7 74.1 83.3 74.1 82.9 74.1C82.2 74 81.7 73.5 81.7 72.9C81.7 72.2 82.2 71.6 82.9 71.7C84.4 72 84.8 71.1 85.3 70C88.5 62.6 91.8 55.3 95 47.9C95.2 47.4 95.3 47 94.8 46.7C94.6 46.6 94.4 46.4 94.3 46.1C93.9 45 93.1 45 92.1 45C88.7 45 85.2 45 81.8 45C81.5 45 81.2 45 80.8 45C80.8 45.8 80.8 46.6 80.8 47.3C80.8 49.5 80.7 49.6 78.4 49.6C78 49.6 77.6 49.6 77.1 49.6C77.1 65.5 77.1 81.4 77.1 97.3C77.4 97.3 77.7 97.3 78 97.3C80.8 97.3 83.7 97.3 86.5 97.3C90.3 97.3 93.4 100.2 93.6 103.8C93.6 103.9 93.6 104.1 93.6 104.3C80.5 104.3 67.4 104.3 54.1 104.3C54.3 103.4 54.5 102.4 54.8 101.6C56.1 98.8 58.3 97.4 61.4 97.4C64.2 97.4 67 97.4 69.8 97.4C70.4 97.5 70.7 97.5 71 97.5ZM109.8 71.7C109.7 71.4 109.7 71.3 109.6 71.1C106.3 63.7 103 56.2 99.8 48.8C99.4 47.9 98.7 48.5 98.2 48.4C98 48.4 97.6 48.7 97.5 49C94.2 56.3 91 63.7 87.7 71C87.6 71.2 87.5 71.4 87.5 71.7C94.9 71.7 102.3 71.7 109.8 71.7ZM60.7 71.7C57.2 63.8 53.8 56.1 50.4 48.3C50.1 48.3 49.8 48.4 49.6 48.4C48.7 48.2 48.4 48.8 48.1 49.5C45 56.6 41.8 63.7 38.7 70.8C38.6 71.1 38.5 71.4 38.3 71.7C45.8 71.7 53.2 71.7 60.7 71.7Z" fill="#C70000"/>
<path d="M100 115.7C82.7 115.7 65.5 115.7 48.3 115.7C48.3 113.9 48.2 112.1 48.3 110.4C48.5 108.7 49.9 107.4 51.7 107.2C52.1 107.1 52.4 107.1 52.8 107.1C67 107.1 81.3 107.1 95.5 107.1C96.8 107.1 97.9 107.4 98.8 108.3C99.5 109 99.9 109.9 100 110.9C100.1 112.4 100 114 100 115.7Z" fill="#C70000"/>
</svg>
