<svg width="148" height="148" viewBox="0 0 148 148" fill="none" xmlns="http://www.w3.org/2000/svg">
<path d="M74.1 147.2C114.472 147.2 147.2 114.472 147.2 74.1C147.2 33.728 114.472 1 74.1 1C33.728 1 1 33.728 1 74.1C1 114.472 33.728 147.2 74.1 147.2Z" stroke="#C70000" stroke-miterlimit="10"/>
<path d="M114.1 45.5C114.1 55.3 114.1 65.2 114.1 75C113.9 75.7 113.7 76.5 113.4 77.2C112 80 109.6 81.4 106.5 81.4C103 81.4 99.5 81.4 96 81.4C95.7 81.4 95.5 81.4 95.1 81.4C95.2 81.7 95.3 82 95.4 82.2C97.5 87.9 99.6 93.6 101.7 99.3C102.5 101.4 103.3 103.6 104.1 105.7C104.5 107 104 108.2 102.9 108.7C101.7 109.2 100.5 108.8 99.8 107.5C99.7 107.2 99.6 107 99.5 106.7C96.5 98.5 93.5 90.3 90.5 82.1C90.3 81.4 89.9 81.4 89.3 81.3C88.7 81.3 88.5 81.5 88.3 82.1C85.3 90.3 82.4 98.5 79.4 106.7C79.3 107.1 79.1 107.5 78.9 107.8C78.4 108.6 77.7 109 76.8 108.9C75.8 108.8 75 108.3 74.8 107.3C74.7 106.6 74.7 105.8 75 105.2C77.7 97.6 80.5 89.9 83.3 82.3C83.4 82 83.5 81.7 83.6 81.3C80.9 81.3 78.2 81.3 75.6 81.3C75.4 81.3 75.1 81.6 74.9 81.8C73.1 84.4 70 85.4 67.1 84.1C64.7 83.1 62.4 81.8 60 80.7C59.8 80.6 59.5 80.5 59.1 80.3C59.1 80.8 59.1 81.1 59.1 81.4C59.1 89.6 59.1 97.8 59.1 106.1C59.1 108 58.2 108.9 56.3 108.9C51.6 108.9 46.9 108.9 42.2 108.9C40.3 108.9 39.4 108 39.4 106.1C39.4 102.2 39.4 98.2 39.4 94.3C39.4 93.7 39.3 93.4 38.7 93.1C37.5 92.6 36.4 91.8 35.8 90.6C35.2 89.6 34.9 88.4 34.4 87.3C34.4 84.1 34.4 81 34.4 77.8C34.4 77.6 34.5 77.4 34.5 77.2C34.8 74.1 36 71.4 38.1 69.2C39.2 68 40.5 67 41.8 65.9C36.4 60.8 37.7 53.5 41.5 49.7C45.6 45.7 52.1 45.4 56.5 49.1C60.9 52.8 62.2 60 57.4 65.3C59.7 66.5 62.1 67.6 64.5 68.8C64.5 68.4 64.5 68.1 64.5 67.8C64.5 60.7 64.5 53.6 64.5 46.6C64.5 42.2 67.6 38.9 71.9 38.9C83.6 38.9 95.2 38.9 106.9 38.9C109.3 38.9 111.2 39.8 112.7 41.7C113.3 43 113.7 44.3 114.1 45.5ZM72 72.9C72.2 72.6 72.3 72.3 72.5 72C74 69.1 75.4 66.2 76.9 63.3C77.3 62.5 77.9 61.9 78.8 61.8C79.7 61.7 80.5 62 81 62.8C81.6 63.6 81.5 64.5 81.1 65.4C79.3 69 77.5 72.5 75.8 76.1C75.7 76.3 75.6 76.6 75.5 76.9C75.7 76.9 75.8 76.9 75.9 76.9C86.1 76.9 96.4 76.9 106.6 76.9C108.4 76.9 109.4 75.8 109.4 73.9C109.4 64.9 109.4 55.9 109.4 47C109.4 45.1 108.3 44 106.4 44C94.9 44 83.4 44 71.9 44C70 44 68.9 45.1 68.9 46.9C68.9 49.3 68.9 51.7 68.9 54.1C68.9 59.7 68.9 65.2 68.9 70.8C68.9 71.2 68.9 71.6 69.4 71.8C70.3 72 71.1 72.5 72 72.9ZM54.2 104.3C54.2 103.9 54.2 103.6 54.2 103.3C54.2 94.7 54.2 86 54.2 77.4C54.2 77 54.2 76.7 54.2 76.3C54.3 75.4 54.8 74.8 55.6 74.4C56.4 74.1 57.1 74.3 57.8 74.6C61.2 76.3 64.6 78 68 79.7C69.1 80.3 70.1 80 70.6 79C71 78.1 70.7 77.4 69.5 76.8C65.3 74.7 61.1 72.7 57 70.6C54.3 69.2 51.5 68.7 48.5 68.8C42.9 69.1 38.7 73.4 38.6 78.9C38.6 81.4 38.6 83.8 38.6 86.3C38.6 87.9 39.5 88.9 41.1 89.1C42.8 89.3 43.6 90.1 43.6 91.9C43.6 95.7 43.6 99.5 43.6 103.3C43.6 103.6 43.6 103.9 43.6 104.2C47.3 104.3 50.7 104.3 54.2 104.3ZM55.4 58.1C55.7 54.6 53 51.6 49.2 51.4C45.9 51.2 42.8 53.7 42.6 57.5C42.4 60.8 44.9 64 48.8 64.2C52.2 64.4 55.3 61.7 55.4 58.1Z" fill="#C70000"/>
<path d="M89.2 53.8C85.2 53.8 81.2 53.8 77.2 53.8C76.8 53.8 76.4 53.8 76 53.7C75 53.5 74.3 52.5 74.3 51.5C74.3 50.5 75 49.5 76 49.3C76.3 49.2 76.7 49.2 77.1 49.2C85.2 49.2 93.2 49.2 101.3 49.2C103.2 49.2 104.4 50.5 104 52.1C103.7 53.2 102.8 53.8 101.6 53.8C98 53.8 94.3 53.8 90.7 53.8C90.1 53.8 89.6 53.8 89.2 53.8Z" fill="#C70000"/>
<path d="M95.4 62.6C93.3 62.6 91.2 62.6 89.2 62.6C88.2 62.6 87.4 62.1 87 61.1C86.7 60.2 86.8 59.4 87.5 58.6C88 58 88.7 57.9 89.5 57.9C91.4 57.9 93.3 57.9 95.2 57.9C97.4 57.9 99.5 57.9 101.7 57.9C102.7 57.9 103.5 58.4 103.9 59.3C104.3 60.2 104.1 61 103.5 61.8C103 62.4 102.2 62.6 101.5 62.6C99.4 62.6 97.4 62.6 95.4 62.6Z" fill="#C70000"/>
<path d="M95.4 71.4C93.4 71.4 91.3 71.4 89.3 71.4C87.4 71.4 86.3 69.6 87.1 68C87.5 67.2 88.2 66.7 89.2 66.7C93.4 66.7 97.5 66.7 101.7 66.7C103.1 66.7 104.1 67.7 104.1 69C104.1 70.3 103.1 71.3 101.7 71.4C100.5 71.4 99.2 71.4 98 71.4C97.1 71.4 96.2 71.4 95.4 71.4Z" fill="#C70000"/>
</svg>
