<svg width="141" height="141" viewBox="0 0 141 141" fill="none" xmlns="http://www.w3.org/2000/svg">
<path d="M27 23C29.9823 23 32.4 20.5823 32.4 17.6C32.4 14.6177 29.9823 12.2 27 12.2C24.0177 12.2 21.6 14.6177 21.6 17.6C21.6 20.5823 24.0177 23 27 23Z" fill="#BB002C"/>
<path d="M69.6 130.2C102.958 130.2 130 103.158 130 69.8C130 36.442 102.958 9.39999 69.6 9.39999C36.242 9.39999 9.2 36.442 9.2 69.8C9.2 103.158 36.242 130.2 69.6 130.2Z" fill="#BE001E"/>
<path d="M71.5 130.2C104.858 130.2 131.9 103.158 131.9 69.8C131.9 36.442 104.858 9.39999 71.5 9.39999C38.142 9.39999 11.1 36.442 11.1 69.8C11.1 103.158 38.142 130.2 71.5 130.2Z" fill="#DA0015"/>
<path d="M70.6 140.2C109.039 140.2 140.2 109.039 140.2 70.6C140.2 32.161 109.039 1 70.6 1C32.161 1 1 32.161 1 70.6C1 109.039 32.161 140.2 70.6 140.2Z" stroke="#CC2530" stroke-width="0.75" stroke-miterlimit="10"/>
<path d="M28.7 77.8C28.8 77.3 28.9 76.8 29.1 76.3C30.4 71.6 34.7 68.2 39.6 68.1C41.7 68.1 43.8 68 45.8 68.3C49.4 68.9 52 71.1 53.7 74.4C54.1 74 54.4 73.7 54.8 73.4C58.6 69.9 63 68.1 68.1 68.1C70.9 68.1 73.8 68.1 76.6 68.5C80.6 69.1 84 71.1 86.9 73.9C87.1 74.1 87.2 74.2 87.4 74.4C87.4 74.4 87.4 74.4 87.5 74.4C88 73.7 88.4 72.9 89 72.2C91.2 69.5 94 68.1 97.5 68.1C99.6 68.1 101.8 68 103.8 68.4C108.4 69.3 111.6 72.8 112.4 77.4C112.4 77.5 112.5 77.6 112.5 77.8C112.5 84.5 112.5 91.1 112.5 97.8L112.4 97.9C111.5 100.7 109.9 101.9 107 101.9C103.3 101.9 99.6 101.9 96 101.9C94.9 101.9 93.9 101.9 92.8 101.9C92.7 102.2 92.7 102.4 92.6 102.6C92 105.3 89.8 107.1 87 107.1C76.1 107.1 65.1 107.1 54.2 107.1C52.8 107.1 51.5 106.6 50.5 105.7C49.4 104.7 48.8 103.4 48.5 101.9C48.2 101.9 47.9 101.9 47.6 101.9C42.9 101.9 38.3 101.9 33.6 101.9C31.4 101.9 29.6 100.6 28.9 98.5C28.8 98.3 28.8 98.2 28.7 98C28.7 91.2 28.7 84.5 28.7 77.8ZM70.6 102.2C75.9 102.2 81.2 102.2 86.5 102.2C87.5 102.2 87.7 102 87.7 101C87.7 96.5 87.7 92 87.7 87.5C87.7 80.7 82.6 74.6 75.9 73.4C73.4 73 70.8 73 68.2 73C60 73 53.4 79.6 53.4 87.8C53.4 92.1 53.4 96.5 53.4 100.8C53.4 101.9 53.6 102.1 54.7 102.1C60 102.2 65.3 102.2 70.6 102.2ZM48.5 96.9C48.5 93.7 48.4 90.6 48.5 87.6C48.6 85.8 49 84 49.3 82.1C49.5 81.1 49.7 80.1 49.7 79.1C49.7 76.2 47.6 73.7 44.7 73.2C43.2 73 41.6 73 40.1 73C36.1 73 33.5 75.6 33.5 79.5C33.5 85 33.5 90.5 33.5 95.9C33.5 96.2 33.5 96.5 33.5 96.8C38.6 96.9 43.5 96.9 48.5 96.9ZM107.5 96.9C107.5 96.7 107.5 96.6 107.5 96.5C107.5 90.7 107.5 84.8 107.5 79C107.5 76.1 105.4 73.6 102.6 73.2C101.1 73 99.5 73.1 98 73C94.1 72.8 90.2 76.3 91.7 81.8C92.1 83.1 92.4 84.4 92.5 85.7C92.7 88.8 92.6 92 92.7 95.1C92.7 95.7 92.7 96.3 92.7 96.9C97.7 96.9 102.6 96.9 107.5 96.9Z" fill="white"/>
<path d="M70.6 34.1C78.5 34.1 84.8 40.5 84.8 48.4C84.8 56.2 78.4 62.6 70.6 62.6C62.7 62.6 56.4 56.2 56.4 48.3C56.4 40.5 62.8 34.1 70.6 34.1ZM61.3 48.3C61.3 53.4 65.5 57.6 70.6 57.7C75.7 57.7 79.9 53.5 80 48.4C80 43.2 75.8 39 70.7 39C65.5 39 61.3 43.2 61.3 48.3Z" fill="white"/>
<path d="M50.8 53.6C50.8 58.6 46.7 62.6 41.8 62.6C36.9 62.6 32.8 58.5 32.8 53.6C32.8 48.7 36.9 44.6 41.8 44.6C46.7 44.6 50.8 48.6 50.8 53.6ZM45.9 53.6C45.9 51.3 44 49.5 41.8 49.5C39.6 49.5 37.8 51.3 37.8 53.6C37.8 55.9 39.6 57.7 41.9 57.7C44.1 57.7 45.9 55.8 45.9 53.6Z" fill="white"/>
<path d="M99.4 44.6C104.3 44.6 108.4 48.7 108.4 53.6C108.4 58.5 104.3 62.6 99.4 62.6C94.5 62.6 90.4 58.5 90.4 53.6C90.4 48.6 94.5 44.6 99.4 44.6ZM103.5 53.6C103.5 51.3 101.7 49.5 99.4 49.5C97.2 49.5 95.3 51.3 95.3 53.5C95.3 55.8 97.1 57.6 99.3 57.7C101.6 57.7 103.5 55.8 103.5 53.6Z" fill="white"/>
</svg>
