<svg width="141" height="141" viewBox="0 0 141 141" fill="none" xmlns="http://www.w3.org/2000/svg">
<path d="M27 23C29.9823 23 32.4 20.5823 32.4 17.6C32.4 14.6177 29.9823 12.2 27 12.2C24.0177 12.2 21.6 14.6177 21.6 17.6C21.6 20.5823 24.0177 23 27 23Z" fill="#BB002C"/>
<path d="M69.6 130.2C102.958 130.2 130 103.158 130 69.8C130 36.442 102.958 9.39999 69.6 9.39999C36.242 9.39999 9.2 36.442 9.2 69.8C9.2 103.158 36.242 130.2 69.6 130.2Z" fill="#BE001E"/>
<path d="M71.5 130.2C104.858 130.2 131.9 103.158 131.9 69.8C131.9 36.442 104.858 9.39999 71.5 9.39999C38.142 9.39999 11.1 36.442 11.1 69.8C11.1 103.158 38.142 130.2 71.5 130.2Z" fill="#DA0015"/>
<path d="M70.6 140.2C109.039 140.2 140.2 109.039 140.2 70.6C140.2 32.161 109.039 1 70.6 1C32.161 1 1 32.161 1 70.6C1 109.039 32.161 140.2 70.6 140.2Z" stroke="#BB002C" stroke-width="0.75" stroke-miterlimit="10"/>
<path d="M69.7 114.3C63.8 112.5 58.3 109.8 53.3 106.3C44.6 100.2 39 91.9 36.1 81.7C34.5 76.2 33.7 70.5 33.5 64.7C33.4 59.3 33.5 53.9 33.4 48.5C33.3 43.2 37.1 38.9 42.8 38.6C48.1 38.3 53.2 37.1 57.9 34.6C60.5 33.3 62.8 31.6 65 29.7C66 28.8 67 27.9 68.1 27.3C70 26.3 71.9 26.5 73.6 27.8C74.9 28.8 76.1 30 77.4 31C83.4 35.8 90.4 38 98 38.5C101.1 38.7 103.8 39.8 105.7 42.4C106.8 43.9 107.4 45.5 107.5 47.4C107.7 54.1 107.9 60.7 107.3 67.4C106.6 75.7 105 83.8 101 91.2C97.4 97.8 92.4 103.1 86.2 107.2C82 110 77.5 112.1 72.8 113.8C72.3 114 71.8 114.1 71.3 114.2C70.8 114.3 70.2 114.3 69.7 114.3ZM38.6 57.7C38.5 64.6 38.8 71.5 40.5 78.3C42.4 86 45.9 92.8 51.8 98.4C57 103.4 63.3 106.7 70.1 109.1C70.5 109.2 71 109.2 71.3 109.1C75.3 107.7 79.1 106 82.7 103.7C89.3 99.5 94.4 94.1 97.7 87C100.6 80.8 101.8 74.3 102.4 67.6C102.9 61.1 102.7 54.6 102.6 48.1C102.5 46 101.1 44.5 99 44.2C96.3 43.8 93.6 43.6 90.9 43.1C83.6 41.6 77.2 38.3 71.8 33.2C70.7 32.1 70.6 32.1 69.5 33.2C64.1 38.3 57.7 41.6 50.4 43.1C47.8 43.6 45.1 43.8 42.5 44.2C40.2 44.5 38.8 46.1 38.8 48.5C38.6 51.4 38.6 54.6 38.6 57.7Z" fill="white"/>
<path d="M70.5 92.4C58.5 92.4 48.8 82.7 48.7 70.6C48.7 58.7 58.7 48.7 70.6 48.8C82.6 48.9 92.4 58.7 92.3 70.6C92.3 82.6 82.5 92.4 70.5 92.4ZM70.5 54C61.3 54 53.8 61.6 53.9 70.7C54 79.9 61.5 87.4 70.6 87.3C79.8 87.2 87.2 79.8 87.2 70.6C87.2 61.5 79.6 53.9 70.5 54Z" fill="white"/>
<path d="M66.7 74.1C67.3 73.4 67.8 72.8 68.4 72.3C71.1 69.6 73.9 66.8 76.6 64.1C77.8 62.9 79.4 62.8 80.4 63.9C81.5 65 81.4 66.5 80.2 67.8C76.4 71.6 72.6 75.4 68.8 79.2C67.4 80.6 66 80.6 64.6 79.2C63.2 77.9 61.9 76.5 60.6 75.2C59.4 74 59.3 72.4 60.4 71.3C61.5 70.2 63 70.3 64.2 71.5C64.9 72.3 65.7 73.1 66.7 74.1Z" fill="white"/>
</svg>
