<svg width="141" height="141" viewBox="0 0 141 141" fill="none" xmlns="http://www.w3.org/2000/svg">
<path d="M27 23C29.9823 23 32.4 20.5823 32.4 17.6C32.4 14.6177 29.9823 12.2 27 12.2C24.0177 12.2 21.6 14.6177 21.6 17.6C21.6 20.5823 24.0177 23 27 23Z" fill="#BB002C"/>
<path d="M69.6 130.2C102.958 130.2 130 103.158 130 69.8C130 36.442 102.958 9.39999 69.6 9.39999C36.242 9.39999 9.20001 36.442 9.20001 69.8C9.20001 103.158 36.242 130.2 69.6 130.2Z" fill="#BE001E"/>
<path d="M71.5 130.2C104.858 130.2 131.9 103.158 131.9 69.8C131.9 36.442 104.858 9.39999 71.5 9.39999C38.142 9.39999 11.1 36.442 11.1 69.8C11.1 103.158 38.142 130.2 71.5 130.2Z" fill="#DA0015"/>
<path d="M70.6 140.2C109.039 140.2 140.2 109.039 140.2 70.6C140.2 32.161 109.039 1 70.6 1C32.161 1 1 32.161 1 70.6C1 109.039 32.161 140.2 70.6 140.2Z" stroke="#CC2530" stroke-width="0.75" stroke-miterlimit="10"/>
<path d="M54.9 113.1C54.4 112.6 53.7 112.1 53.4 111.4C52 109 50.8 106.5 49.5 104C49.3 103.5 49 103.4 48.5 103.4C45.6 103.6 42.8 103.7 39.9 103.9C39 104 38.2 103.8 37.7 103C37.1 102.2 37.4 101.4 37.8 100.6C41.5 94.2 45.1 87.8 48.7 81.4C48.9 81.1 49 80.8 49.2 80.5C48.5 80.3 47.9 80.1 47.3 79.9C44.6 79 43.2 77 43.2 74.1C43.2 73.3 43.2 72.4 43.3 71.6C43.4 70.3 43 69.3 42.1 68.4C41.3 67.7 40.6 66.9 39.9 66.1C38.5 64.3 38.2 62.3 39.2 60.2C39.6 59.2 40.2 58.3 40.8 57.5C41.5 56.4 41.6 55.3 41.2 54.2C40.9 53.2 40.6 52.3 40.4 51.3C39.9 49 40.7 47.1 42.5 45.6C43.3 45 44.2 44.4 45.2 43.9C46.2 43.3 46.9 42.4 47.1 41.2C47.2 40.5 47.4 39.8 47.5 39.2C48.1 36 50.1 34.2 53.3 34C54 34 54.8 33.9 55.5 33.9C56.6 33.9 57.5 33.4 58.1 32.5C58.6 31.8 59.2 31.2 59.7 30.5C61.5 28.3 64 27.6 66.7 28.7C67.5 29 68.3 29.4 69.1 29.7C70.1 30.2 71.2 30.2 72.2 29.7C73.4 29.2 74.7 28.6 76 28.3C77.9 27.8 79.6 28.5 81 29.9C81.8 30.7 82.4 31.6 83.1 32.5C83.8 33.4 84.7 33.9 85.8 33.9C86.8 34 87.8 34 88.9 34.2C91.4 34.5 93.2 36.2 93.8 38.7C94 39.6 94.2 40.4 94.3 41.3C94.5 42.5 95.1 43.3 96.1 43.9C96.9 44.4 97.7 44.8 98.4 45.3C100.6 46.8 101.5 49.1 100.8 51.7C100.6 52.6 100.3 53.5 100 54.3C99.7 55.4 99.8 56.4 100.4 57.3C101 58.2 101.6 59.2 102 60.2C103 62.3 102.7 64.4 101.2 66.2C100.6 67 99.8 67.7 99.1 68.4C98.2 69.3 97.8 70.3 97.9 71.5C98 72.4 98 73.2 98 74.1C98 76.9 96.6 78.9 94 79.8C93.4 80 92.8 80.2 92.1 80.4C92.3 80.7 92.4 81 92.6 81.2C96.2 87.6 99.9 94 103.5 100.4C103.8 100.9 104 101.5 104 102C104 103.2 103 103.8 101.6 103.8C98.8 103.6 95.9 103.5 93.1 103.3C92.4 103.3 92.1 103.5 91.8 104.1C90.6 106.5 89.3 108.9 88 111.3C87.6 111.9 87 112.4 86.5 113C86.2 113 85.8 113 85.5 113C85 112.5 84.3 112.1 84 111.4C80.3 104.9 76.6 98.4 72.9 91.9C72.6 91.3 72.3 91.1 71.6 91.3C71.1 91.4 70.4 91.5 69.9 91.3C69.2 91.1 68.9 91.4 68.6 92C64.9 98.5 61.3 104.9 57.6 111.4C57.2 112 56.6 112.5 56.1 113.1C55.5 113.1 55.2 113.1 54.9 113.1ZM45.7 72.6C45.7 73.1 45.7 73.6 45.7 74.1C45.7 75.9 46.4 77 48.1 77.5C48.9 77.8 49.6 78 50.4 78.2C52.2 78.8 53.5 79.9 54.3 81.7C54.6 82.5 55 83.2 55.3 84C56.1 85.6 57.3 86.2 59 85.9C59.9 85.8 60.7 85.6 61.6 85.5C63.2 85.2 64.6 85.5 65.9 86.4C66.7 87 67.5 87.6 68.4 88.2C69.8 89.2 71.2 89.2 72.6 88.2C73.3 87.7 74 87.2 74.6 86.6C76.1 85.5 77.7 85.1 79.5 85.4C80.3 85.6 81.1 85.7 81.9 85.8C83.8 86.1 85 85.5 85.8 83.7C86.1 83 86.5 82.2 86.8 81.5C87.6 79.8 88.8 78.7 90.6 78.1C91.4 77.8 92.3 77.6 93.1 77.3C94.6 76.8 95.4 75.6 95.4 74C95.4 73.1 95.3 72.3 95.3 71.4C95.2 69.5 95.8 67.8 97.2 66.5C97.8 65.9 98.4 65.3 98.9 64.7C100 63.5 100.2 62.1 99.4 60.7C99 60 98.6 59.3 98.1 58.6C97.1 56.9 96.9 55.2 97.5 53.3C97.7 52.5 98 51.7 98.2 50.9C98.6 49.3 98.1 48 96.7 47C96 46.6 95.4 46.2 94.7 45.8C92.9 44.8 91.9 43.2 91.5 41.2C91.4 40.4 91.2 39.6 91 38.8C90.7 37.4 89.8 36.6 88.4 36.4C87.4 36.3 86.4 36.2 85.3 36.1C83.5 36 82 35.2 80.9 33.8C80.3 33.1 79.8 32.4 79.2 31.7C78.1 30.4 76.8 30.1 75.3 30.7C74.5 31 73.7 31.4 72.9 31.8C71.2 32.5 69.6 32.5 67.9 31.8C67 31.4 66.2 31 65.3 30.7C63.9 30.1 62.5 30.5 61.6 31.6C61 32.3 60.5 33 59.9 33.7C58.7 35.1 57.3 35.9 55.4 36C54.6 36 53.8 36.1 53 36.2C51.1 36.4 50 37.3 49.7 39.2C49.6 40 49.4 40.8 49.2 41.6C48.9 43.4 47.9 44.8 46.3 45.7C45.5 46.2 44.8 46.6 44 47.1C42.7 48 42.2 49.3 42.6 50.8C42.8 51.7 43.1 52.5 43.3 53.3C43.9 55.1 43.7 56.8 42.7 58.4C42.2 59.2 41.8 59.9 41.4 60.7C40.6 62.1 40.8 63.4 41.8 64.6C42.2 65 42.5 65.4 43 65.8C45.2 67.8 46.2 69.9 45.7 72.6ZM84.9 88.1C85.6 89.3 86.2 90.3 86.8 91.4C87.2 92.2 87 92.9 86.4 93.3C85.8 93.6 85.1 93.4 84.7 92.6C84.2 91.8 83.7 91.1 83.4 90.3C82.8 88.9 81.9 88.4 80.4 88.1C77.9 87.5 76.3 88.6 74.6 90.2C78.4 96.8 82.1 103.4 85.9 110C86 109.9 86.1 109.8 86.1 109.8C87.3 107.4 88.6 105.1 89.8 102.7C89.9 102.4 89.9 102 89.7 101.7C89.1 100.5 88.3 99.3 87.7 98.1C87.3 97.3 87.4 96.6 88.1 96.2C88.7 95.9 89.4 96.1 89.8 96.8C90.2 97.5 90.7 98.2 91 98.9C91.6 100.5 92.7 101.4 94.5 101.1C94.8 101.1 95.1 101.1 95.3 101.2C97.2 101.3 99 101.4 101.1 101.5C97.3 94.9 93.6 88.4 89.9 81.8C88.3 84 87.9 87.1 84.9 88.1ZM51.4 81.6C47.6 88.3 43.9 94.8 40.1 101.4C43.1 101.3 45.8 101.1 48.6 101C48.8 101 49.1 100.7 49.2 100.5C49.9 99.4 50.5 98.2 51.2 97C51.7 96.1 52.4 95.8 53.1 96.3C53.7 96.7 53.8 97.4 53.4 98.3C52.8 99.5 52.1 100.6 51.5 101.8C51.4 102.1 51.3 102.6 51.5 102.8C52.6 105 53.8 107.3 55 109.5C55.1 109.7 55.2 109.8 55.4 110.1C59.2 103.4 63 96.8 66.7 90.2C66.2 89.9 65.8 89.6 65.5 89.2C64.3 88.1 62.9 87.7 61.4 88.2C60.9 88.3 60.4 88.5 59.9 88.5C59.2 88.5 58.9 88.9 58.6 89.4C58 90.6 57.3 91.7 56.6 92.9C56.2 93.6 55.5 93.8 54.9 93.5C54.3 93.2 54.1 92.4 54.4 91.7C54.6 91.4 54.8 91.1 54.9 90.8C55.3 90 55.8 89.2 56.2 88.4C54 87.1 53.7 86.7 52.6 84.4C52.3 83.4 51.9 82.6 51.4 81.6Z" fill="white"/>
<path d="M70.6 82C58.4 82 48.3 72 48.4 59.7C48.4 47.5 58.5 37.4 70.7 37.5C82.9 37.6 92.9 47.5 92.9 59.7C92.8 72.1 83 81.9 70.6 82ZM90.4 59.8C90.4 49 81.5 40.1 70.7 40.1C59.9 40 50.9 49 50.9 59.8C50.9 70.7 59.9 79.6 70.7 79.5C81.5 79.5 90.4 70.6 90.4 59.8Z" fill="white"/>
<path d="M78 62.3C78.9 65.2 79.9 67.9 80.7 70.7C80.9 71.2 80.9 71.8 80.8 72.3C80.4 73.5 79.1 73.7 78 72.9C75.8 71.3 73.6 69.7 71.4 68.1C70.9 67.7 70.6 67.7 70.1 68.1C68 69.7 65.8 71.3 63.6 72.8C62.6 73.5 61.9 73.6 61.2 73C60.5 72.5 60.3 71.7 60.7 70.6C61.5 68.1 62.3 65.5 63.2 63C63.4 62.5 63.3 62.2 62.8 61.8C60.7 60.3 58.5 58.7 56.4 57.2C56.1 57 55.9 56.8 55.6 56.6C54.7 55.6 55.1 54.1 56.5 53.8C56.8 53.7 57.2 53.7 57.6 53.7C60.2 53.7 62.9 53.7 65.5 53.7C66 53.7 66.3 53.5 66.4 53C67.2 50.4 68.1 47.8 68.9 45.3C69.3 44.2 69.9 43.7 70.7 43.7C71.5 43.7 72.1 44.2 72.5 45.3C73.3 47.8 74.1 50.3 74.9 52.8C75.1 53.5 75.4 53.8 76.2 53.7C78.7 53.6 81.3 53.7 83.8 53.7C84.1 53.7 84.5 53.7 84.8 53.8C85.5 53.9 86 54.3 86.2 55C86.4 55.7 86.3 56.3 85.7 56.8C85 57.4 84.2 57.9 83.4 58.5C81.6 59.7 79.8 61 78 62.3ZM70.7 48.1C70.6 48.1 70.6 48.1 70.5 48.1C69.8 50.2 69.1 52.3 68.5 54.4C68 55.9 67.6 56.2 66 56.2C64 56.2 62 56.2 59.9 56.2C59.7 56.2 59.5 56.2 59.3 56.3C59.3 56.4 59.3 56.4 59.3 56.5C60.8 57.6 62.4 58.8 63.9 59.9C66.1 61.5 66.1 61.5 65.3 64.1C64.7 66 64.1 67.8 63.4 69.9C65.4 68.4 67.2 67.1 69 65.8C70.3 64.9 70.8 64.9 72 65.8C73.6 67 75.2 68.1 76.8 69.3C77 69.4 77.2 69.5 77.5 69.7C76.7 67.3 76 65.2 75.3 63C74.9 61.8 75.1 61.2 76.1 60.5C77.8 59.3 79.4 58.1 81.1 56.9C81.3 56.8 81.5 56.6 81.8 56.3C81.4 56.3 81.2 56.3 81 56.3C78.9 56.3 76.7 56.3 74.6 56.3C73.5 56.3 73 55.9 72.6 54.9C72.4 54.3 72.2 53.7 72 53.1C71.8 51.3 71.2 49.7 70.7 48.1Z" fill="white"/>
</svg>
